<?xml version="1.0" encoding="utf-8"?>
<!-- Generator: Adobe Illustrator 27.5.0, SVG Export Plug-In . SVG Version: 6.00 Build 0)  -->
<svg version="1.1" xmlns="http://www.w3.org/2000/svg" xmlns:xlink="http://www.w3.org/1999/xlink" x="0px" y="0px"
	 viewBox="0 0 750 500" style="enable-background:new 0 0 750 500;" xml:space="preserve">
<g id="BACKGROUND">
	<rect style="fill:#D5D9F2;" width="750" height="500"/>
</g>
<g id="OBJECTS">
	<g>
		<g>
			<g>
				<g>
					<path style="fill:#BFC5EB;" d="M376.624,418.114c-1.705-0.038-3.398-0.154-5.034-0.345l0.116-0.994
						c1.604,0.188,3.267,0.302,4.939,0.339L376.624,418.114z M381.664,418.003l-0.064-0.998c1.607-0.103,3.267-0.274,4.934-0.51
						l0.141,0.99C384.981,417.724,383.296,417.899,381.664,418.003z M366.611,416.93c-0.434-0.096-0.867-0.198-1.299-0.307
						c-1.189-0.299-2.389-0.66-3.566-1.073l0.331-0.943c1.149,0.403,2.319,0.755,3.479,1.046c0.423,0.106,0.846,0.207,1.271,0.301
						L366.611,416.93z M391.629,416.605l-0.209-0.978c1.569-0.334,3.193-0.732,4.825-1.185l0.268,0.963
						C394.861,415.863,393.218,416.266,391.629,416.605z M401.317,413.921l-0.32-0.947c1.533-0.52,3.104-1.097,4.67-1.716
						l0.367,0.93C404.454,412.813,402.867,413.396,401.317,413.921z M357.083,413.592c-1.512-0.744-2.991-1.585-4.396-2.501
						l0.546-0.838c1.372,0.894,2.816,1.716,4.292,2.442L357.083,413.592z M410.66,410.231l-0.41-0.912
						c1.506-0.678,3.017-1.4,4.488-2.148l0.453,0.893C413.705,408.817,412.18,409.546,410.66,410.231z M348.626,408.076
						c-1.301-1.097-2.529-2.276-3.65-3.507l0.739-0.674c1.092,1.198,2.288,2.348,3.556,3.417L348.626,408.076z M419.62,405.693
						l-0.492-0.871c1.436-0.81,2.875-1.666,4.278-2.542l0.529,0.848C422.52,404.011,421.068,404.874,419.62,405.693z
						 M341.834,400.594c-0.896-1.318-1.693-2.693-2.372-4.092c-0.939,0.173-1.89,0.329-2.842,0.47l-0.146-0.99
						c1.653-0.242,3.298-0.537,4.89-0.876l0.208,0.978c-0.361,0.077-0.725,0.151-1.092,0.224c0.632,1.272,1.364,2.523,2.181,3.724
						L341.834,400.594z M428.134,400.374l-0.566-0.824c1.36-0.936,2.72-1.914,4.04-2.908l0.602,0.799
						C430.879,398.444,429.507,399.43,428.134,400.374z M321.579,397.87l-0.88-0.022c-1.384-0.042-2.777-0.112-4.139-0.21
						l0.072-0.998c1.348,0.098,2.727,0.167,4.097,0.208l0.871,0.022L321.579,397.87z M326.605,397.845l-0.031-1
						c1.663-0.052,3.333-0.149,4.964-0.29l0.086,0.996C329.974,397.694,328.286,397.792,326.605,397.845z M311.563,397.153
						c-1.656-0.204-3.327-0.452-4.967-0.736l0.171-0.985c1.624,0.282,3.279,0.527,4.918,0.729L311.563,397.153z M301.67,395.44
						c-1.622-0.364-3.262-0.772-4.873-1.215l0.265-0.965c1.596,0.439,3.22,0.844,4.827,1.203L301.67,395.44z M346.457,394.866
						l-0.276-0.961c1.611-0.463,3.198-0.982,4.715-1.546l0.348,0.938C349.702,393.868,348.092,394.397,346.457,394.866z
						 M436.155,394.334l-0.635-0.771c1.275-1.049,2.546-2.141,3.776-3.243l0.668,0.744
						C438.722,392.176,437.441,393.277,436.155,394.334z M291.986,392.78c-1.576-0.514-3.17-1.074-4.738-1.667l0.354-0.936
						c1.553,0.588,3.133,1.143,4.694,1.651L291.986,392.78z M337.535,391.438c-0.279-1-0.506-2.018-0.675-3.027
						c-0.108-0.648-0.191-1.313-0.246-1.977l0.997-0.082c0.053,0.636,0.132,1.272,0.236,1.893c0.163,0.975,0.382,1.959,0.652,2.924
						L337.535,391.438z M355.893,391.356l-0.423-0.906c1.506-0.703,2.984-1.474,4.393-2.288l0.501,0.865
						C358.93,389.856,357.426,390.64,355.893,391.356z M282.59,389.228c-1.53-0.659-3.066-1.362-4.567-2.091l0.436-0.9
						c1.487,0.723,3.01,1.42,4.526,2.073L282.59,389.228z M443.632,387.636l-0.697-0.717c1.175-1.146,2.35-2.339,3.492-3.549
						l0.727,0.688C446.003,385.277,444.818,386.481,443.632,387.636z M364.611,386.297l-0.585-0.811
						c1.327-0.957,2.582-2.032,3.73-3.196l0.712,0.703C367.281,384.197,365.983,385.308,364.611,386.297z M273.554,384.844
						c-1.47-0.796-2.938-1.634-4.362-2.489l0.515-0.857c1.412,0.848,2.867,1.678,4.324,2.468L273.554,384.844z M337.702,381.461
						l-0.993-0.117c0.195-1.662,0.551-3.336,1.058-4.973l0.955,0.295C338.233,378.245,337.89,379.859,337.702,381.461z
						 M450.522,380.335l-0.756-0.654c1.091-1.258,2.161-2.545,3.185-3.828l0.781,0.623
						C452.701,377.77,451.621,379.069,450.522,380.335z M264.943,379.677c-1.388-0.919-2.777-1.882-4.127-2.862l0.588-0.809
						c1.338,0.972,2.715,1.926,4.091,2.837L264.943,379.677z M371.695,379.057l-0.832-0.555c0.961-1.441,1.692-2.902,2.173-4.34
						l0.948,0.316C373.476,376.001,372.706,377.541,371.695,379.057z M256.817,373.778c-1.306-1.038-2.605-2.118-3.862-3.209
						l0.655-0.756c1.246,1.083,2.535,2.153,3.829,3.182L256.817,373.778z M456.78,372.485l-0.807-0.59
						c0.979-1.341,1.939-2.714,2.853-4.081l0.832,0.557C458.737,369.748,457.768,371.133,456.78,372.485z M340.579,372.124
						l-0.889-0.459c0.781-1.515,1.695-2.96,2.716-4.295l0.794,0.608C342.215,369.267,341.333,370.661,340.579,372.124z
						 M373.691,369.437c-0.088-1.231-0.397-2.429-0.919-3.558c-0.151-0.326-0.318-0.642-0.501-0.944l0.857-0.516
						c0.2,0.334,0.385,0.681,0.551,1.04c0.573,1.239,0.913,2.554,1.009,3.907L373.691,369.437z M249.236,367.195
						c-1.213-1.151-2.414-2.34-3.567-3.534l0.72-0.695c1.143,1.184,2.333,2.362,3.536,3.503L249.236,367.195z M346.527,364.385
						l-0.665-0.746c1.295-1.153,2.687-2.153,4.138-2.974l0.492,0.871C349.103,362.322,347.769,363.28,346.527,364.385z
						 M462.361,364.141l-0.854-0.521c0.867-1.422,1.709-2.87,2.501-4.306l0.875,0.483
						C464.085,361.245,463.236,362.706,462.361,364.141z M368.975,361.524c-1.282-0.869-2.759-1.535-4.389-1.98l0.264-0.965
						c1.736,0.475,3.313,1.188,4.686,2.117L368.975,361.524z M242.263,359.971c-1.104-1.25-2.194-2.54-3.239-3.837l0.778-0.627
						c1.036,1.284,2.116,2.563,3.21,3.802L242.263,359.971z M354.979,359.655l-0.271-0.963c1.473-0.414,2.987-0.661,4.5-0.733
						c0.188-0.008,0.372-0.014,0.556-0.017l0.017,1c-0.177,0.003-0.353,0.009-0.529,0.016
						C357.819,359.026,356.379,359.26,354.979,359.655z M467.219,355.352l-0.895-0.445c0.74-1.486,1.455-3.001,2.124-4.502
						l0.914,0.406C468.688,352.327,467.966,353.854,467.219,355.352z M235.961,352.157c-0.985-1.342-1.954-2.727-2.878-4.115
						l0.833-0.555c0.915,1.376,1.875,2.748,2.851,4.078L235.961,352.157z M471.305,346.182l-0.93-0.367
						c0.608-1.543,1.188-3.114,1.723-4.67l0.945,0.326C472.504,343.039,471.92,344.625,471.305,346.182z M230.4,343.797
						c-0.861-1.435-1.695-2.904-2.48-4.368l0.881-0.473c0.778,1.449,1.604,2.905,2.457,4.327L230.4,343.797z M474.571,336.688
						l-0.959-0.283c0.467-1.586,0.903-3.202,1.297-4.804l0.971,0.238C475.483,333.455,475.043,335.086,474.571,336.688z
						 M225.65,334.946c-0.719-1.512-1.407-3.056-2.046-4.589l0.923-0.385c0.633,1.519,1.314,3.048,2.026,4.544L225.65,334.946z
						 M476.966,326.938l-0.98-0.195l0.081-0.421l0.984,0.18L476.966,326.938z M221.789,325.671c-0.564-1.57-1.094-3.177-1.576-4.774
						l0.957-0.289c0.478,1.581,1.002,3.171,1.56,4.726L221.789,325.671z"/>
				</g>
				<g>
					<path style="fill:#BFC5EB;" d="M370.776,102.445c-0.454-1.052-0.922-2.099-1.403-3.138l0.907-0.42
						c0.485,1.047,0.957,2.102,1.414,3.162L370.776,102.445z M367.194,94.83c-0.748-1.465-1.537-2.943-2.347-4.391l0.873-0.488
						c0.815,1.459,1.611,2.948,2.364,4.425L367.194,94.83z M362.337,86.137c-0.857-1.41-1.755-2.825-2.667-4.206l0.835-0.551
						c0.919,1.392,1.822,2.817,2.686,4.238L362.337,86.137z M356.852,77.824c-0.953-1.336-1.95-2.683-2.965-4.003l0.793-0.609
						c1.022,1.329,2.027,2.686,2.987,4.032L356.852,77.824z M130.421,75.165l-0.806-0.592c0.983-1.34,2.009-2.682,3.048-3.988
						l0.783,0.622C132.415,72.504,131.398,73.835,130.421,75.165z M350.779,69.927c-1.054-1.273-2.145-2.546-3.243-3.783
						l0.748-0.664c1.106,1.246,2.205,2.527,3.266,3.81L350.779,69.927z M136.62,67.368l-0.759-0.651
						c1.082-1.259,2.206-2.519,3.341-3.745l0.733,0.68C138.809,64.868,137.693,66.118,136.62,67.368z M344.162,62.477
						c-1.138-1.194-2.316-2.388-3.5-3.547l0.7-0.715c1.192,1.168,2.378,2.37,3.523,3.573L344.162,62.477z M143.388,60.059
						l-0.708-0.706c1.174-1.177,2.388-2.35,3.608-3.487l0.682,0.731C145.758,57.727,144.553,58.891,143.388,60.059z M337.043,55.505
						c-1.219-1.114-2.475-2.224-3.735-3.298l0.648-0.761c1.269,1.082,2.535,2.199,3.762,3.321L337.043,55.505z M150.675,53.269
						l-0.654-0.756c1.254-1.086,2.549-2.168,3.85-3.216l0.627,0.778C153.207,51.116,151.921,52.19,150.675,53.269z M329.461,49.039
						c-1.289-1.026-2.619-2.047-3.952-3.035l0.596-0.804c1.342,0.995,2.681,2.022,3.979,3.056L329.461,49.039z M158.433,47.02
						l-0.6-0.801c1.328-0.994,2.697-1.982,4.068-2.936l0.571,0.821C161.111,45.052,159.752,46.033,158.433,47.02z M321.455,43.106
						c-1.362-0.939-2.758-1.867-4.15-2.757l0.539-0.842c1.401,0.896,2.807,1.831,4.178,2.776L321.455,43.106z M166.612,41.333
						l-0.542-0.841c1.394-0.898,2.828-1.789,4.262-2.645l0.513,0.858C169.421,39.556,167.997,40.44,166.612,41.333z M313.063,37.736
						c-1.425-0.845-2.882-1.674-4.329-2.466l0.479-0.877c1.457,0.797,2.924,1.632,4.359,2.483L313.063,37.736z M175.167,36.225
						l-0.482-0.876c1.452-0.8,2.944-1.589,4.435-2.346l0.452,0.892C178.09,34.647,176.609,35.431,175.167,36.225z M304.322,32.956
						c-1.475-0.742-2.985-1.469-4.489-2.16l0.418-0.908c1.514,0.696,3.035,1.428,4.52,2.175L304.322,32.956z M184.053,31.718
						l-0.422-0.907c1.504-0.699,3.047-1.385,4.585-2.037l0.391,0.921C187.079,30.343,185.546,31.023,184.053,31.718z
						 M295.272,28.794c-1.534-0.64-3.091-1.259-4.63-1.838l0.353-0.936c1.55,0.583,3.119,1.207,4.663,1.851L295.272,28.794z
						 M193.226,27.828l-0.358-0.934c1.557-0.598,3.143-1.177,4.713-1.719l0.326,0.945C196.348,26.659,194.773,27.234,193.226,27.828
						z M285.949,25.285c-1.567-0.527-3.165-1.032-4.749-1.501l0.284-0.959c1.596,0.473,3.206,0.982,4.784,1.512L285.949,25.285z
						 M202.644,24.574l-0.294-0.956c1.595-0.49,3.216-0.958,4.821-1.392l0.261,0.966C205.839,23.623,204.228,24.088,202.644,24.574z
						 M276.398,22.456c-1.605-0.413-3.236-0.799-4.846-1.149l0.212-0.977c1.623,0.352,3.266,0.742,4.883,1.158L276.398,22.456z
						 M212.264,21.977l-0.227-0.974c1.624-0.379,3.274-0.733,4.906-1.054l0.192,0.981C215.517,21.249,213.878,21.601,212.264,21.977
						z M266.665,20.341c-1.626-0.29-3.281-0.553-4.92-0.781l0.138-0.99c1.651,0.23,3.319,0.495,4.958,0.787L266.665,20.341z
						 M222.041,20.057l-0.158-0.987c1.657-0.265,3.328-0.502,4.968-0.704l0.122,0.992C225.345,19.559,223.686,19.794,222.041,20.057
						z M256.797,18.969c-1.64-0.164-3.31-0.299-4.964-0.4l0.062-0.998c1.667,0.102,3.35,0.238,5.002,0.403L256.797,18.969z
						 M231.928,18.835l-0.087-0.996c1.662-0.145,3.346-0.261,5.006-0.345l0.051,0.999C235.25,18.576,233.578,18.691,231.928,18.835z
						 M246.858,18.357c-1.661-0.04-3.322-0.046-4.981-0.024l-0.014-1c1.672-0.023,3.345-0.015,5.019,0.024L246.858,18.357z"/>
				</g>
				<g>
					<path style="fill:#BFC5EB;" d="M673.182,272.904c-1.675-0.026-3.368-0.127-5.033-0.299l0.102-0.994
						c1.638,0.168,3.302,0.267,4.947,0.293L673.182,272.904z M678.22,272.771l-0.068-0.998c1.641-0.112,3.299-0.295,4.928-0.542
						l0.15,0.988C681.574,272.47,679.888,272.656,678.22,272.771z M688.177,271.264l-0.228-0.973c1.593-0.374,3.2-0.82,4.779-1.325
						l0.305,0.953C691.429,270.432,689.795,270.884,688.177,271.264z M697.767,268.197l-0.379-0.926
						c1.532-0.627,3.052-1.319,4.516-2.055l0.449,0.893C700.867,266.857,699.324,267.559,697.767,268.197z M706.761,263.671
						l-0.518-0.855c1.414-0.857,2.806-1.777,4.136-2.735l0.584,0.81C709.613,261.865,708.199,262.8,706.761,263.671z
						 M714.929,257.783l-0.648-0.762c1.257-1.07,2.481-2.203,3.637-3.368l0.709,0.705
						C717.452,255.541,716.208,256.694,714.929,257.783z M722.021,250.631l-0.767-0.641c1.058-1.267,2.068-2.592,3.004-3.939
						l0.821,0.57C724.127,247.993,723.097,249.342,722.021,250.631z M727.767,242.353l-0.869-0.495
						c0.81-1.423,1.57-2.906,2.26-4.409l0.908,0.417C729.365,239.395,728.591,240.905,727.767,242.353z M731.972,233.2l-0.941-0.339
						c0.555-1.539,1.055-3.131,1.486-4.73l0.965,0.261C733.044,230.017,732.536,231.635,731.972,233.2z M734.596,223.478
						l-0.982-0.183c0.299-1.615,0.538-3.267,0.709-4.908l0.994,0.104C735.143,220.158,734.901,221.836,734.596,223.478z
						 M735.644,213.464l-1-0.026c0.015-0.546,0.022-1.093,0.022-1.639c0-1.103-0.029-2.22-0.087-3.32l0.998-0.053
						c0.059,1.118,0.089,2.252,0.089,3.373C735.666,212.354,735.659,212.909,735.644,213.464z M734.125,203.539
						c-0.214-1.629-0.496-3.273-0.841-4.886l0.978-0.209c0.35,1.639,0.637,3.309,0.854,4.965L734.125,203.539z M732.053,193.851
						c-0.478-1.587-1.023-3.163-1.622-4.685l0.93-0.366c0.609,1.547,1.164,3.149,1.649,4.763L732.053,193.851z M701.768,189.299
						c-1.755-0.026-3.459-0.314-5.063-0.855l0.32-0.947c1.506,0.508,3.106,0.778,4.759,0.803L701.768,189.299z M706.855,188.596
						l-0.291-0.957c0.879-0.267,1.72-0.613,2.499-1.03c0.619-0.331,1.232-0.706,1.821-1.114l0.57,0.821
						c-0.621,0.431-1.268,0.826-1.921,1.175C708.698,187.938,707.797,188.309,706.855,188.596z M692.195,185.938
						c-1.375-1.17-2.407-2.577-3.068-4.181l0.924-0.381c0.601,1.456,1.54,2.734,2.793,3.8L692.195,185.938z M728.42,184.638
						c-0.738-1.483-1.544-2.942-2.397-4.336l0.854-0.522c0.868,1.419,1.688,2.904,2.438,4.413L728.42,184.638z M715.26,182.915
						l-0.748-0.665c1.037-1.165,2.006-2.498,2.88-3.963l0.859,0.513C717.344,180.319,716.339,181.703,715.26,182.915z
						 M689.385,176.723l-0.994-0.107c0.179-1.665,0.739-3.313,1.666-4.896l0.863,0.506
						C690.065,173.686,689.549,175.199,689.385,176.723z M723.234,176.216c-0.759-0.993-1.553-1.941-2.367-2.828
						c-0.115,0.296-0.232,0.588-0.352,0.876l-0.924-0.384c0.177-0.424,0.348-0.857,0.513-1.299
						c-0.032-0.034-0.065-0.067-0.098-0.101l0.213-0.209c0.36-0.986,0.694-2.009,0.995-3.059l0.961,0.275
						c-0.279,0.975-0.587,1.929-0.917,2.852c0.956,1.015,1.886,2.112,2.771,3.269L723.234,176.216z M716.314,169.228
						c-1.356-1.02-2.759-1.884-4.168-2.569l0.438-0.899c1.466,0.713,2.924,1.611,4.332,2.668L716.314,169.228z M694.013,168.536
						l-0.656-0.754c1.302-1.133,2.756-2.063,4.323-2.764l0.408,0.913C696.612,166.591,695.241,167.468,694.013,168.536z
						 M707.552,165.048c-0.996-0.217-2.012-0.353-3.019-0.402c-0.6-0.03-1.198-0.014-1.795,0.04l-0.092-0.996
						c0.644-0.06,1.289-0.076,1.936-0.043c1.061,0.052,2.132,0.195,3.182,0.424L707.552,165.048z M723.341,164.583l-0.982-0.189
						c0.31-1.607,0.557-3.256,0.734-4.902l0.994,0.107C723.907,161.272,723.656,162.949,723.341,164.583z M724.422,154.571l-1-0.027
						c0.015-0.539,0.021-1.077,0.021-1.616c0-1.11-0.03-2.234-0.09-3.342l0.998-0.054c0.06,1.125,0.092,2.268,0.092,3.396
						C724.444,153.475,724.437,154.023,724.422,154.571z M722.892,144.648c-0.216-1.628-0.501-3.272-0.847-4.886l0.979-0.209
						c0.35,1.64,0.64,3.31,0.86,4.963L722.892,144.648z M720.819,134.956c-0.472-1.585-1.011-3.164-1.602-4.693l0.934-0.36
						c0.6,1.553,1.147,3.157,1.627,4.768L720.819,134.956z M717.247,125.713c-0.722-1.494-1.507-2.966-2.334-4.374l0.861-0.507
						c0.842,1.432,1.641,2.927,2.373,4.446L717.247,125.713z M712.224,117.174c-0.13-0.186-0.263-0.369-0.396-0.553
						c-0.834-1.148-1.722-2.281-2.637-3.367l0.766-0.645c0.93,1.104,1.832,2.256,2.68,3.423c0.137,0.188,0.272,0.376,0.405,0.565
						L712.224,117.174z M705.843,109.6c-1.155-1.16-2.379-2.293-3.638-3.368l0.648-0.761c1.28,1.092,2.525,2.244,3.698,3.424
						L705.843,109.6z M698.308,103.166c-1.332-0.965-2.721-1.89-4.128-2.749l0.521-0.854c1.43,0.873,2.841,1.813,4.192,2.793
						L698.308,103.166z M689.849,98c-1.468-0.745-2.983-1.442-4.506-2.07l0.381-0.925c1.547,0.639,3.087,1.346,4.578,2.104
						L689.849,98z M680.688,94.221c-1.571-0.507-3.178-0.954-4.776-1.331l0.228-0.974c1.625,0.383,3.259,0.837,4.855,1.352
						L680.688,94.221z M671.043,91.955c-1.63-0.245-3.288-0.422-4.928-0.527l0.064-0.998c1.667,0.107,3.354,0.288,5.012,0.536
						L671.043,91.955z"/>
				</g>
				<g>
					<path style="fill:#BFC5EB;" d="M94.313,373.197l-0.018-1c1.647-0.029,3.313-0.124,4.951-0.282l0.096,0.996
						C97.678,373.071,95.987,373.167,94.313,373.197z M89.275,373.084c-1.677-0.104-3.363-0.279-5.012-0.519l0.144-0.99
						c1.623,0.236,3.281,0.408,4.931,0.511L89.275,373.084z M104.334,372.242l-0.17-0.986c1.623-0.279,3.256-0.624,4.855-1.022
						l0.242,0.971C107.638,371.609,105.98,371.958,104.334,372.242z M79.31,371.634c-1.627-0.378-3.261-0.826-4.858-1.333
						l0.303-0.953c1.571,0.499,3.18,0.94,4.781,1.311L79.31,371.634z M114.099,369.812l-0.311-0.951
						c1.568-0.513,3.136-1.087,4.66-1.709l0.378,0.926C117.28,368.708,115.69,369.291,114.099,369.812z M69.716,368.587
						c-1.537-0.624-3.081-1.321-4.59-2.073l0.446-0.895c1.486,0.74,3.007,1.427,4.52,2.042L69.716,368.587z M123.419,366.019
						l-0.44-0.898c1.476-0.725,2.949-1.512,4.377-2.342l0.502,0.865C126.409,364.485,124.916,365.284,123.419,366.019z
						 M60.705,364.103c-1.436-0.854-2.86-1.772-4.233-2.728l0.571-0.82c1.353,0.942,2.757,1.847,4.172,2.689L60.705,364.103z
						 M132.121,360.966l-0.561-0.828c1.369-0.928,2.717-1.912,4.008-2.928l0.618,0.787
						C134.877,359.027,133.509,360.025,132.121,360.966z M52.445,358.353c-1.301-1.051-2.581-2.16-3.804-3.298l0.682-0.732
						c1.206,1.122,2.467,2.217,3.75,3.253L52.445,358.353z M140.032,354.747l-0.672-0.74c1.226-1.113,2.42-2.28,3.549-3.468
						l0.725,0.689C142.488,352.434,141.276,353.617,140.032,354.747z M45.078,351.499c-1.142-1.221-2.255-2.497-3.309-3.794
						l0.776-0.631c1.039,1.279,2.137,2.538,3.263,3.741L45.078,351.499z M146.967,347.454l-0.774-0.633
						c1.046-1.279,2.053-2.61,2.992-3.957l0.82,0.572C149.052,344.804,148.03,346.156,146.967,347.454z M38.733,343.69
						c-0.965-1.374-1.889-2.794-2.746-4.22l0.857-0.516c0.845,1.406,1.755,2.806,2.707,4.161L38.733,343.69z M152.721,339.195
						l-0.863-0.506c0.834-1.424,1.617-2.897,2.329-4.376l0.901,0.434C154.365,336.25,153.568,337.746,152.721,339.195z
						 M33.552,335.064c-0.758-1.494-1.467-3.033-2.108-4.573l0.923-0.385c0.632,1.518,1.331,3.034,2.077,4.507L33.552,335.064z
						 M29.685,325.771c-0.525-1.595-0.992-3.224-1.388-4.842l0.972-0.238c0.39,1.594,0.849,3.197,1.367,4.768L29.685,325.771z
						 M27.299,315.99c-0.196-1.219-0.355-2.456-0.476-3.678c-0.044-0.443-0.083-0.887-0.116-1.329l0.997-0.076
						c0.033,0.437,0.071,0.872,0.114,1.308c0.118,1.201,0.275,2.418,0.468,3.617L27.299,315.99z M27.533,305.953l-1-0.006
						c0.01-1.662,0.088-3.355,0.232-5.032L27.761,301C27.62,302.651,27.543,304.317,27.533,305.953z M28.378,296.078l-0.986-0.162
						c0.271-1.645,0.608-3.305,1.004-4.934l0.972,0.236C28.977,292.824,28.644,294.459,28.378,296.078z M30.715,286.441
						l-0.952-0.307c0.509-1.583,1.086-3.176,1.714-4.733l0.928,0.373C31.786,283.31,31.217,284.88,30.715,286.441z M34.421,277.24
						l-0.898-0.439c0.733-1.503,1.528-2.998,2.363-4.444l0.866,0.5C35.929,274.282,35.145,275.756,34.421,277.24z M85.258,274.749
						l-0.07-0.998c1.598-0.113,3.221-0.394,4.823-0.834l0.265,0.965C88.61,274.339,86.922,274.631,85.258,274.749z M80.19,274.726
						c-1.655-0.125-3.341-0.369-5.011-0.726l0.209-0.979c1.625,0.348,3.267,0.585,4.877,0.706L80.19,274.726z M70.307,272.633
						c-1.572-0.549-3.142-1.203-4.667-1.943l0.437-0.9c1.491,0.725,3.025,1.363,4.561,1.9L70.307,272.633z M95.036,272.082
						l-0.44-0.898c1.505-0.737,2.901-1.607,4.149-2.584l0.616,0.787C98.058,270.407,96.603,271.314,95.036,272.082z M39.381,268.645
						l-0.829-0.559c0.933-1.386,1.928-2.756,2.957-4.074l0.788,0.615C41.282,265.927,40.301,267.279,39.381,268.645z M61.226,268.23
						c-1.415-0.895-2.8-1.879-4.118-2.928l0.623-0.783c1.289,1.026,2.645,1.99,4.029,2.865L61.226,268.23z M102.97,265.765
						l-0.796-0.606c1.015-1.334,1.78-2.761,2.275-4.239l0.948,0.318C104.868,262.821,104.051,264.343,102.97,265.765z
						 M53.327,261.959c-1.182-1.152-2.34-2.394-3.441-3.688l0.762-0.648c1.082,1.27,2.218,2.488,3.378,3.619L53.327,261.959z
						 M45.486,260.824l-0.743-0.67c1.124-1.247,2.302-2.465,3.5-3.618l0.693,0.721C47.756,258.393,46.595,259.593,45.486,260.824z
						 M105.116,256.182c-0.07-1.579-0.434-3.15-1.081-4.67l0.92-0.391c0.694,1.63,1.084,3.317,1.16,5.016L105.116,256.182z
						 M46.785,254.296c-0.958-1.339-1.889-2.755-2.768-4.208l0.855-0.518c0.866,1.432,1.783,2.827,2.726,4.144L46.785,254.296z
						 M52.635,253.947l-0.639-0.77c1.299-1.078,2.642-2.11,3.992-3.07l0.579,0.816C55.237,251.867,53.915,252.885,52.635,253.947z
						 M60.716,248.206l-0.515-0.857c1.441-0.865,2.927-1.68,4.418-2.42l0.445,0.896C63.598,246.553,62.135,247.354,60.716,248.206z
						 M101.483,247.41c-1.031-1.22-2.24-2.32-3.593-3.271l0.575-0.818c1.423,1,2.696,2.159,3.782,3.444L101.483,247.41z
						 M41.567,245.69c-0.751-1.466-1.474-2.997-2.148-4.55l0.917-0.398c0.666,1.534,1.379,3.045,2.121,4.492L41.567,245.69z
						 M69.59,243.8l-0.371-0.929c0.517-0.206,1.037-0.406,1.561-0.598c1.083-0.398,2.16-0.757,3.201-1.07l0.288,0.958
						c-1.022,0.307-2.08,0.661-3.144,1.051C70.61,243.401,70.099,243.598,69.59,243.8z M93.595,241.855
						c-0.416-0.158-0.837-0.301-1.261-0.428c-1.113-0.334-2.281-0.589-3.472-0.757l0.14-0.99c1.241,0.175,2.459,0.44,3.619,0.789
						c0.447,0.134,0.891,0.285,1.329,0.452L93.595,241.855z M79.07,240.992l-0.18-0.983c1.726-0.316,3.419-0.507,5.034-0.57
						l0.039,0.999C82.396,240.499,80.749,240.685,79.07,240.992z M37.555,236.469c-0.569-1.563-1.102-3.169-1.582-4.774l0.958-0.286
						c0.475,1.586,1,3.173,1.563,4.717L37.555,236.469z M34.674,226.838c-0.384-1.623-0.727-3.28-1.018-4.923l0.984-0.174
						c0.288,1.625,0.626,3.263,1.006,4.867L34.674,226.838z M32.922,216.941c-0.197-1.649-0.349-3.334-0.453-5.007l0.998-0.063
						c0.103,1.654,0.254,3.32,0.448,4.951L32.922,216.941z M32.298,206.908l-0.001-0.514c0-1.501,0.039-3.02,0.114-4.512
						l0.999,0.051c-0.075,1.476-0.113,2.977-0.113,4.461l0.001,0.508L32.298,206.908z M33.8,196.978l-0.994-0.107
						c0.179-1.664,0.408-3.34,0.68-4.982l0.986,0.163C34.203,193.676,33.977,195.333,33.8,196.978z M35.425,187.174l-0.976-0.22
						c0.367-1.629,0.787-3.268,1.248-4.871l0.961,0.276C36.203,183.944,35.788,185.563,35.425,187.174z M38.173,177.626
						l-0.943-0.333c0.111-0.314,0.223-0.626,0.338-0.939c0.46-1.257,0.958-2.519,1.477-3.751l0.922,0.389
						c-0.514,1.218-1.005,2.465-1.46,3.707C38.393,177.007,38.281,177.316,38.173,177.626z M42.03,168.471l-0.897-0.442
						c0.738-1.497,1.529-2.993,2.352-4.444l0.87,0.493C43.542,165.512,42.759,166.99,42.03,168.471z M46.928,159.825l-0.841-0.542
						c0.906-1.404,1.862-2.799,2.844-4.146l0.809,0.589C48.769,157.057,47.823,158.437,46.928,159.825z M52.778,151.791
						l-0.774-0.633c1.056-1.291,2.164-2.569,3.292-3.8l0.737,0.676C54.917,149.251,53.822,150.515,52.778,151.791z M59.495,144.465
						l-0.698-0.716c1.196-1.165,2.44-2.311,3.699-3.406l0.656,0.755C61.907,142.18,60.677,143.313,59.495,144.465z M66.994,137.945
						l-0.612-0.791c1.324-1.024,2.69-2.02,4.063-2.962l0.565,0.825C69.654,135.947,68.302,136.932,66.994,137.945z M75.191,132.327
						l-0.517-0.857c1.435-0.865,2.909-1.695,4.382-2.467l0.465,0.886C78.065,130.653,76.608,131.473,75.191,132.327z"/>
				</g>
			</g>
			<g>
				<g>
					<path style="fill:#BFC5EB;" d="M510.673,470h-67.702c-10.589-20.572-4.492-72.552,18.61-10.946
						c1.284-45.884,16.431-45.563,19.125-3.53c7.828-65.777,58.204-129.629,18.417,3.53
						C516.449,432.422,522.545,453.672,510.673,470z"/>
				</g>
				<g>
					<path style="fill:#BFC5EB;" d="M261.145,470h57.41c15.537-37.834-7.374-40.359-18.698-5.179
						c2.37-41.872-15.011-40.819-18.961,1.317C263.251,388.45,222.433,361.941,261.145,470z"/>
				</g>
				<g>
					<path style="fill:#BFC5EB;" d="M45.244,470h22.168c-3.221-60.65-24.821-69.366-11.084-4.187
						C46.76,440.992,32.549,447.661,45.244,470z"/>
				</g>
				<g>
					<path style="fill:#BFC5EB;" d="M686.286,470h-22.169c3.221-60.65,24.821-69.366,11.084-4.187
						C684.771,440.992,698.981,447.661,686.286,470z"/>
				</g>
			</g>
			<g>
				<g>
					<path style="fill:#BFC5EB;" d="M697.874,395.812h-0.033c-1.741,0-3.434-0.332-5.029-0.987l0.379-0.926
						c1.476,0.606,3.04,0.913,4.65,0.913L697.874,395.812z M702.935,394.798l-0.385-0.924c1.486-0.619,2.819-1.515,3.963-2.661
						l0.707,0.707C705.985,393.159,704.543,394.127,702.935,394.798z M688.508,391.969c-1.241-1.231-2.214-2.671-2.89-4.277
						l0.922-0.389c0.625,1.486,1.524,2.816,2.673,3.955L688.508,391.969z M710.087,387.626l-0.924-0.383
						c0.614-1.484,0.926-3.06,0.926-4.681v-0.128l1-0.022v0.16C711.089,384.316,710.753,386.02,710.087,387.626z M684.589,382.631
						l0.001-0.089c0-1.708,0.328-3.39,0.976-4.978l0.926,0.377c-0.598,1.468-0.901,3.022-0.901,4.621L684.589,382.631z
						 M709.111,377.759c-0.631-1.48-1.537-2.806-2.692-3.94l0.701-0.713c1.249,1.226,2.228,2.659,2.911,4.261L709.111,377.759z
						 M689.12,373.959l-0.711-0.703c1.228-1.245,2.665-2.221,4.269-2.899l0.389,0.922
						C691.585,371.906,690.256,372.807,689.12,373.959z M702.428,371.202c-1.457-0.59-3-0.889-4.588-0.889l-0.104,0.001v-1
						l0.09-0.001c0.001,0,0.001,0,0.002,0c1.73,0,3.399,0.323,4.976,0.961L702.428,371.202z"/>
				</g>
				<g>
					<path style="fill:#BFC5EB;" d="M506.677,34.002l-0.023-1c1.588-0.039,3.145-0.49,4.501-1.305l0.516,0.857
						C510.165,33.458,508.438,33.959,506.677,34.002z M501.619,32.803c-1.549-0.829-2.865-2.053-3.809-3.538l0.844-0.536
						c0.852,1.34,2.04,2.444,3.438,3.192L501.619,32.803z M515.299,28.834l-0.869-0.494c0.78-1.374,1.193-2.941,1.193-4.533
						c0-0.306-0.015-0.608-0.044-0.907l0.996-0.096c0.031,0.33,0.048,0.664,0.048,1.002
						C516.624,25.572,516.166,27.31,515.299,28.834z M496.241,24.31c-0.009-0.167-0.013-0.334-0.013-0.503
						c0-1.613,0.365-3.155,1.087-4.584l0.893,0.45c-0.65,1.288-0.98,2.679-0.98,4.134c0,0.152,0.004,0.303,0.011,0.454
						L496.241,24.31z M513.945,18.509c-0.916-1.298-2.157-2.342-3.589-3.019l0.428-0.904c1.587,0.752,2.963,1.909,3.978,3.347
						L513.945,18.509z M501.314,16.16l-0.557-0.831c1.461-0.978,3.161-1.563,4.915-1.692l0.072,0.997
						C504.164,14.749,502.632,15.277,501.314,16.16z"/>
				</g>
				<g>
					<path style="fill:#BFC5EB;" d="M50.165,404.776l-0.024-1c1.589-0.038,3.146-0.489,4.502-1.305l0.515,0.857
						C53.653,404.233,51.926,404.733,50.165,404.776z M45.107,403.577c-1.549-0.828-2.866-2.052-3.809-3.537l0.844-0.535
						c0.851,1.34,2.04,2.443,3.437,3.191L45.107,403.577z M58.788,399.609l-0.87-0.494c0.78-1.375,1.193-2.942,1.193-4.534
						c0-0.306-0.015-0.607-0.044-0.905l0.995-0.098c0.032,0.329,0.049,0.664,0.049,1.003
						C60.111,396.345,59.653,398.083,58.788,399.609z M39.728,395.084c-0.008-0.167-0.012-0.334-0.012-0.506
						c0-1.609,0.365-3.151,1.085-4.581l0.894,0.449c-0.65,1.29-0.979,2.681-0.979,4.134c0,0.154,0.003,0.306,0.011,0.455
						L39.728,395.084z M57.433,389.282c-0.917-1.297-2.157-2.341-3.589-3.019l0.428-0.904c1.587,0.752,2.962,1.909,3.978,3.347
						L57.433,389.282z M44.802,386.933l-0.557-0.83c1.462-0.979,3.162-1.565,4.917-1.692l0.072,0.998
						C47.652,385.523,46.12,386.05,44.802,386.933z"/>
				</g>
				<g>
					<path style="fill:#BFC5EB;" d="M44.368,49.932l-0.024-1c1.589-0.038,3.146-0.489,4.502-1.305l0.515,0.857
						C47.856,49.389,46.129,49.889,44.368,49.932z M39.31,48.733c-1.549-0.83-2.866-2.053-3.809-3.538l0.844-0.536
						c0.851,1.34,2.04,2.444,3.437,3.192L39.31,48.733z M52.991,44.764l-0.87-0.494c0.781-1.375,1.193-2.942,1.193-4.533
						c0-0.305-0.015-0.607-0.044-0.905l0.995-0.098c0.032,0.33,0.049,0.664,0.049,1.002C54.314,41.501,53.857,43.239,52.991,44.764z
						 M33.931,40.24c-0.008-0.167-0.012-0.334-0.012-0.503c0-1.612,0.365-3.154,1.086-4.583l0.893,0.45
						c-0.649,1.289-0.979,2.679-0.979,4.133c0,0.152,0.004,0.303,0.011,0.454L33.931,40.24z M51.635,34.439
						c-0.916-1.297-2.156-2.341-3.588-3.019l0.428-0.904c1.587,0.751,2.963,1.909,3.978,3.347L51.635,34.439z M39.005,32.09
						l-0.557-0.831c1.462-0.979,3.162-1.563,4.916-1.691l0.072,0.997C41.855,30.68,40.322,31.207,39.005,32.09z"/>
				</g>
				<g>
					<path style="fill:#BFC5EB;" d="M575.116,43.548c-0.556,0-1.117-0.03-1.667-0.089l0.107-0.994
						c1.598,0.171,3.244,0.076,4.8-0.283l0.225,0.975C577.452,43.416,576.287,43.548,575.116,43.548z M568.5,42.056
						c-1.56-0.744-2.975-1.74-4.206-2.959l0.703-0.711c1.152,1.141,2.476,2.073,3.933,2.768L568.5,42.056z M583.327,41.176
						l-0.535-0.845c1.366-0.865,2.571-1.945,3.58-3.211l0.781,0.623C586.075,39.097,584.788,40.251,583.327,41.176z M561.294,34.921
						c-0.761-1.554-1.248-3.213-1.45-4.933l0.992-0.117c0.189,1.608,0.646,3.159,1.356,4.611L561.294,34.921z M589.64,33.24
						l-0.943-0.329c0.53-1.521,0.8-3.117,0.8-4.742c-0.001-1.144-0.135-2.28-0.399-3.378l0.973-0.233
						c0.282,1.174,0.426,2.389,0.427,3.611C590.497,29.906,590.209,31.612,589.64,33.24z M561.071,25.067l-0.977-0.215
						c0.371-1.688,1.022-3.292,1.935-4.767l0.85,0.526C562.026,21.99,561.418,23.489,561.071,25.067z M587.203,20.372
						c-0.876-1.357-1.969-2.55-3.246-3.547l0.615-0.788c1.366,1.066,2.534,2.342,3.471,3.794L587.203,20.372z M566.056,17.001
						l-0.631-0.776c1.348-1.094,2.854-1.945,4.478-2.53l0.338,0.941C568.724,15.182,567.316,15.978,566.056,17.001z M579.723,14.542
						c-1.479-0.5-3.029-0.754-4.607-0.754l-0.142,0.001l-0.01-1l0.151-0.001c1.686,0,3.345,0.272,4.928,0.807L579.723,14.542z"/>
				</g>
			</g>
		</g>
		<g>
			<g>
				<g>
					<g>
						<path style="fill:#D5D9F2;" d="M679.081,351.146H282.33c-5.523,0-10-4.477-10-10V60.658c0-5.523,4.477-10,10-10h396.751
							c5.523,0,10,4.477,10,10v280.489C689.081,346.669,684.604,351.146,679.081,351.146z"/>
					</g>
					<g>
						<path style="fill:#A4ACE3;" d="M689.081,71.329H272.33V60.658c0-5.523,4.477-10,10-10h396.751c5.523,0,10,4.477,10,10V71.329z
							"/>
					</g>
					<g>
						<path style="fill:#A4ACE3;" d="M679.082,351.646H282.33c-5.79,0-10.5-4.71-10.5-10.5V60.658c0-5.79,4.71-10.5,10.5-10.5
							h396.751c5.79,0,10.5,4.71,10.5,10.5v280.488C689.582,346.936,684.872,351.646,679.082,351.646z M282.33,51.158
							c-5.238,0-9.5,4.262-9.5,9.5v280.488c0,5.238,4.262,9.5,9.5,9.5h396.751c5.238,0,9.5-4.262,9.5-9.5V60.658
							c0-5.238-4.262-9.5-9.5-9.5H282.33z"/>
					</g>
					<g>
						<g>
							<path style="fill:#D5D9F2;" d="M679.081,60.993c0,1.572-1.275,2.847-2.847,2.847c-1.572,0-2.847-1.275-2.847-2.847
								c0-1.572,1.274-2.847,2.847-2.847C677.807,58.147,679.081,59.421,679.081,60.993z"/>
						</g>
						<g>
							<path style="fill:#D5D9F2;" d="M669.079,60.993c0,1.572-1.274,2.847-2.847,2.847s-2.847-1.275-2.847-2.847
								c0-1.572,1.275-2.847,2.847-2.847S669.079,59.421,669.079,60.993z"/>
						</g>
						<g>
							<path style="fill:#D5D9F2;" d="M659.076,60.993c0,1.572-1.274,2.847-2.847,2.847c-1.572,0-2.847-1.275-2.847-2.847
								c0-1.572,1.274-2.847,2.847-2.847C657.802,58.147,659.076,59.421,659.076,60.993z"/>
						</g>
					</g>
				</g>
				<g>
					<g>
						<g>
							<g>
								<g>
									<path style="fill:#EBB044;" d="M484.608,167.288c-3.494-1.593-6.256-3.764-8.289-6.51c-2.034-2.746-3.12-5.813-3.256-9.204
										h12.003c0.202,2.375,1.337,4.358,3.406,5.95c2.069,1.595,4.661,2.39,7.781,2.39c3.255,0,5.78-0.626,7.578-1.881
										c1.795-1.254,2.695-2.863,2.695-4.831c0-2.101-1.001-3.662-3-4.678c-2.001-1.018-5.172-2.136-9.511-3.357
										c-4.204-1.152-7.628-2.271-10.272-3.357c-2.644-1.084-4.933-2.746-6.866-4.983c-1.933-2.238-2.899-5.187-2.899-8.849
										c0-2.983,0.882-5.712,2.646-8.188c1.762-2.474,4.288-4.424,7.577-5.848c3.289-1.424,7.07-2.136,11.341-2.136
										c6.371,0,11.508,1.611,15.409,4.831c3.898,3.222,5.984,7.613,6.256,13.171h-11.596c-0.202-2.508-1.22-4.509-3.05-6
										c-1.832-1.491-4.306-2.238-7.426-2.238c-3.05,0-5.39,0.577-7.016,1.729c-1.628,1.154-2.442,2.68-2.442,4.576
										c0,1.493,0.542,2.747,1.628,3.763c1.084,1.017,2.405,1.815,3.966,2.39c1.558,0.577,3.864,1.306,6.915,2.186
										c4.07,1.086,7.408,2.187,10.018,3.306c2.609,1.119,4.865,2.763,6.765,4.933c1.896,2.171,2.881,5.052,2.949,8.645
										c0,3.188-0.882,6.036-2.644,8.544c-1.764,2.509-4.257,4.475-7.476,5.898c-3.222,1.424-7.002,2.136-11.341,2.136
										C492.049,169.677,488.099,168.88,484.608,167.288z"/>
								</g>
							</g>
						</g>
						<g>
							<g>
								<g>
									<path style="fill:#EBB044;" d="M491.307,176.332c-0.553,0-1-0.448-1-1v-69.18c0-0.552,0.447-1,1-1s1,0.448,1,1v69.18
										C492.307,175.884,491.86,176.332,491.307,176.332z"/>
								</g>
							</g>
							<g>
								<g>
									<path style="fill:#EBB044;" d="M499.673,176.332c-0.553,0-1-0.448-1-1v-69.18c0-0.552,0.447-1,1-1s1,0.448,1,1v69.18
										C500.673,175.884,500.226,176.332,499.673,176.332z"/>
								</g>
							</g>
						</g>
					</g>
					<g>
						<g>
							<g>
								<rect x="290.68" y="91.163" style="fill:#D82F3C;" width="14.989" height="14.989"/>
							</g>
							<g>
								<g>
									<path style="fill:#D82F3C;" d="M429.202,100.658H318.384c-1.104,0-2-0.896-2-2s0.896-2,2-2h110.817c1.105,0,2,0.896,2,2
										S430.306,100.658,429.202,100.658z"/>
								</g>
							</g>
						</g>
						<g>
							<g>
								<rect x="290.68" y="117.661" style="fill:#518F60;" width="14.989" height="14.989"/>
							</g>
							<g>
								<g>
									<path style="fill:#518F60;" d="M429.202,127.156H318.384c-1.104,0-2-0.896-2-2s0.896-2,2-2h110.817c1.105,0,2,0.896,2,2
										S430.306,127.156,429.202,127.156z"/>
								</g>
							</g>
						</g>
						<g>
							<g>
								<rect x="290.68" y="144.16" style="fill:#5766CC;" width="14.989" height="14.989"/>
							</g>
							<g>
								<g>
									<path style="fill:#5766CC;" d="M429.202,153.655H318.384c-1.104,0-2-0.896-2-2c0-1.105,0.896-2,2-2h110.817
										c1.105,0,2,0.895,2,2C431.202,152.759,430.306,153.655,429.202,153.655z"/>
								</g>
							</g>
						</g>
						<g>
							<g>
								<rect x="290.68" y="170.659" style="fill:#EBB044;" width="14.989" height="14.989"/>
							</g>
							<g>
								<g>
									<path style="fill:#EBB044;" d="M429.202,180.154H318.384c-1.104,0-2-0.895-2-2c0-1.104,0.896-2,2-2h110.817
										c1.105,0,2,0.896,2,2C431.202,179.258,430.306,180.154,429.202,180.154z"/>
								</g>
							</g>
						</g>
					</g>
					<g>
						<g>
							<rect x="565.432" y="91.307" style="fill:#A4ACE3;" width="107.956" height="11.636"/>
						</g>
						<g>
							<rect x="565.432" y="115.52" style="fill:#A4ACE3;" width="107.956" height="11.636"/>
						</g>
						<g>
							<rect x="565.432" y="139.733" style="fill:#A4ACE3;" width="107.956" height="11.636"/>
						</g>
					</g>
					<g>
						<g>
							<polygon style="fill:#BFC5EB;" points="305.669,212.951 364.045,256.187 427.581,205.68 481.295,231.766 561.56,182.733 
								611.997,215.58 660.047,169.677 660.047,327.824 305.669,327.824 							"/>
						</g>
						<g>
							<polygon style="fill:#EBB044;" points="364.06,257.453 305.066,212.834 306.272,211.24 364.03,254.922 427.462,204.497 
								480.658,231.62 561.574,181.549 611.879,214.31 659.357,168.954 660.738,170.401 612.115,216.85 561.547,183.918 
								480.754,233.913 427.7,206.864 							"/>
						</g>
						<g>
							<g>
								<path style="fill:#A4ACE3;" d="M669.082,329.33H292.33c-0.552,0-1-0.447-1-1c0-0.553,0.448-1,1-1h376.751
									c0.553,0,1,0.447,1,1C670.082,328.883,669.634,329.33,669.082,329.33z"/>
							</g>
							<g>
								<path style="fill:#A4ACE3;" d="M480.706,329.33c-0.553,0-1-0.447-1-1V226.95c0-0.552,0.447-1,1-1c0.553,0,1,0.448,1,1
									v101.38C481.706,328.883,481.258,329.33,480.706,329.33z"/>
							</g>
							<g>
								<path style="fill:#A4ACE3;" d="M561.336,329.33c-0.553,0-1-0.447-1-1V176.233c0-0.552,0.447-1,1-1c0.553,0,1,0.448,1,1
									V328.33C562.336,328.883,561.888,329.33,561.336,329.33z"/>
							</g>
							<g>
								<path style="fill:#A4ACE3;" d="M660.047,329.33c-0.553,0-1-0.447-1-1V163.603c0-0.552,0.447-1,1-1s1,0.448,1,1V328.33
									C661.047,328.883,660.6,329.33,660.047,329.33z"/>
							</g>
							<g>
								<path style="fill:#A4ACE3;" d="M427.581,329.33c-0.553,0-1-0.447-1-1V199.024c0-0.552,0.447-1,1-1c0.553,0,1,0.448,1,1
									V328.33C428.581,328.883,428.133,329.33,427.581,329.33z"/>
							</g>
							<g>
								<path style="fill:#A4ACE3;" d="M364.045,329.33c-0.552,0-1-0.447-1-1V250c0-0.552,0.448-1,1-1c0.552,0,1,0.448,1,1v78.331
									C365.045,328.883,364.597,329.33,364.045,329.33z"/>
							</g>
							<g>
								<path style="fill:#A4ACE3;" d="M305.669,329.33c-0.552,0-1-0.447-1-1V207.134c0-0.552,0.448-1,1-1c0.552,0,1,0.448,1,1
									V328.33C306.669,328.883,306.221,329.33,305.669,329.33z"/>
							</g>
						</g>
						<g>
							<g>
								<circle style="fill:#D82F3C;" cx="364.045" cy="256.187" r="3.057"/>
							</g>
							<g>
								<circle style="fill:#D82F3C;" cx="305.669" cy="212.951" r="3.057"/>
							</g>
							<g>
								<circle style="fill:#D82F3C;" cx="427.581" cy="205.68" r="3.057"/>
							</g>
							<g>
								<circle style="fill:#D82F3C;" cx="481.295" cy="231.766" r="3.057"/>
							</g>
							<g>
								<circle style="fill:#D82F3C;" cx="561.56" cy="182.733" r="3.057"/>
							</g>
							<g>
								<path style="fill:#D82F3C;" d="M663.104,169.677c0,1.688-1.369,3.057-3.057,3.057c-1.688,0-3.057-1.369-3.057-3.057
									c0-1.688,1.369-3.057,3.057-3.057C661.735,166.62,663.104,167.989,663.104,169.677z"/>
							</g>
						</g>
					</g>
				</g>
			</g>
			<g>
				<g>
					<g>
						<path style="fill:#D5D9F2;" d="M70.919,186.302h161.033c5.523,0,10-4.477,10-10V60.658c0-5.523-4.477-10-10-10H70.919
							c-5.523,0-10,4.477-10,10v115.644C60.919,181.824,65.396,186.302,70.919,186.302z"/>
					</g>
					<g>
						<path style="fill:#A4ACE3;" d="M241.952,71.329H60.919V60.658c0-5.523,4.477-10,10-10h161.033c5.523,0,10,4.477,10,10V71.329z
							"/>
					</g>
					<g>
						<path style="fill:#A4ACE3;" d="M231.952,186.802H70.919c-5.79,0-10.5-4.711-10.5-10.5V60.658c0-5.79,4.71-10.5,10.5-10.5
							h161.033c5.79,0,10.5,4.71,10.5,10.5v115.644C242.452,182.091,237.741,186.802,231.952,186.802z M70.919,51.158
							c-5.238,0-9.5,4.262-9.5,9.5v115.644c0,5.238,4.262,9.5,9.5,9.5h161.033c5.238,0,9.5-4.262,9.5-9.5V60.658
							c0-5.238-4.262-9.5-9.5-9.5H70.919z"/>
					</g>
					<g>
						<g>
							<path style="fill:#D5D9F2;" d="M231.952,60.993c0,1.572-1.274,2.847-2.847,2.847c-1.572,0-2.847-1.275-2.847-2.847
								c0-1.572,1.275-2.847,2.847-2.847C230.677,58.147,231.952,59.421,231.952,60.993z"/>
						</g>
						<g>
							<path style="fill:#D5D9F2;" d="M221.949,60.993c0,1.572-1.274,2.847-2.847,2.847c-1.572,0-2.847-1.275-2.847-2.847
								c0-1.572,1.275-2.847,2.847-2.847C220.675,58.147,221.949,59.421,221.949,60.993z"/>
						</g>
						<g>
							<path style="fill:#D5D9F2;" d="M211.946,60.993c0,1.572-1.275,2.847-2.847,2.847c-1.572,0-2.847-1.275-2.847-2.847
								c0-1.572,1.275-2.847,2.847-2.847C210.672,58.147,211.946,59.421,211.946,60.993z"/>
						</g>
					</g>
				</g>
				<g>
					<g>
						<g>
							<g>
								<g>
									<g>
										<g>
											<path style="fill:#A4ACE3;" d="M137.786,149.798h4.091c1.801,0,3.261,1.46,3.261,3.26v14.698h-10.612v-14.698
												C134.525,151.258,135.985,149.798,137.786,149.798z"/>
										</g>
									</g>
								</g>
							</g>
							<g>
								<g>
									<g>
										<g>
											<path style="fill:#A4ACE3;" d="M117.215,139.023h4.091c1.801,0,3.26,1.46,3.26,3.261v25.473h-10.612v-25.473
												C113.955,140.483,115.415,139.023,117.215,139.023z"/>
										</g>
									</g>
								</g>
							</g>
							<g>
								<g>
									<g>
										<g>
											<path style="fill:#A4ACE3;" d="M96.645,129.227h4.091c1.801,0,3.261,1.46,3.261,3.261v35.268H93.384v-35.268
												C93.384,130.687,94.844,129.227,96.645,129.227z"/>
										</g>
									</g>
								</g>
							</g>
							<g>
								<g>
									<g>
										<g>
											<path style="fill:#A4ACE3;" d="M76.074,101.8h4.091c1.801,0,3.261,1.46,3.261,3.26v62.696H72.814v-62.696
												C72.814,103.26,74.274,101.8,76.074,101.8z"/>
										</g>
									</g>
								</g>
							</g>
						</g>
						<g>
							<g>
								<g>
									<g>
										<g>
											<path style="fill:#E8EBFC;" d="M150.259,135.992c0.23,0,0.444-0.147,0.517-0.377c0.092-0.286-0.066-0.592-0.351-0.684
												c-17.392-5.579-48.44-23.807-57.718-48.967c-0.104-0.282-0.419-0.426-0.698-0.322c-0.282,0.104-0.426,0.417-0.322,0.698
												c9.412,25.522,40.82,43.984,58.406,49.626C150.148,135.984,150.204,135.992,150.259,135.992z"/>
										</g>
									</g>
								</g>
							</g>
							<g>
								<g>
									<g>
										<g>
											<g>
												<polygon style="fill:#92A9D1;" points="89.451,91.131 90.465,91.523 92.395,86.524 97.241,88.813 97.704,87.829 
													91.802,85.042 												"/>
											</g>
										</g>
									</g>
								</g>
							</g>
						</g>
					</g>
					<g>
						<g>
							<g>
								<g>
									<path style="fill:#A4ACE3;" d="M215.233,120.547c-2.75,2.63-6.49,4.24-10.6,4.24c-5.84,0-10.92-3.25-13.53-8.05l-5.99,3.24
										c3.76,6.92,11.09,11.62,19.52,11.62c5.94,0,11.32-2.33,15.29-6.13L215.233,120.547z M204.633,94.037
										c3.81,0,7.3,1.38,9.98,3.68l4.42-5.17c-3.87-3.32-8.9-5.32-14.4-5.32c-4.16,0-8.05,1.14-11.38,3.14l3.49,5.84
										C199.053,94.827,201.743,94.037,204.633,94.037z"/>
								</g>
							</g>
						</g>
						<g>
							<g>
								<g>
									<path style="fill:#E8EBFC;" d="M226.813,109.407c0,6.32-2.64,12.03-6.89,16.06l-4.69-4.92c2.94-2.8,4.77-6.75,4.77-11.14
										c0-4.68-2.09-8.87-5.39-11.69l4.42-5.17C223.793,96.607,226.813,102.657,226.813,109.407z"/>
								</g>
							</g>
						</g>
						<g>
							<g>
								<g>
									<path style="fill:#E8EBFC;" d="M189.253,109.407c0,2.66,0.67,5.15,1.85,7.33l-5.99,3.24c-1.7-3.14-2.67-6.74-2.67-10.57
										c0-8.09,4.33-15.17,10.81-19.04l3.49,5.84C192.253,98.897,189.253,103.797,189.253,109.407z"/>
								</g>
							</g>
						</g>
						<g>
							<g>
								<g>
									<g>
										<path style="fill:#A4ACE3;" d="M231.287,139.947h-53.319c-0.276,0-0.5-0.224-0.5-0.5s0.224-0.5,0.5-0.5h53.319
											c0.276,0,0.5,0.224,0.5,0.5S231.564,139.947,231.287,139.947z"/>
									</g>
								</g>
							</g>
							<g>
								<g>
									<g>
										<path style="fill:#A4ACE3;" d="M231.287,144.947h-53.319c-0.276,0-0.5-0.224-0.5-0.5s0.224-0.5,0.5-0.5h53.319
											c0.276,0,0.5,0.224,0.5,0.5S231.564,144.947,231.287,144.947z"/>
									</g>
								</g>
							</g>
						</g>
						<g>
							<g>
								<g>
									<g>
										<path style="fill:#A4ACE3;" d="M231.287,151.352h-53.319c-0.276,0-0.5-0.224-0.5-0.5c0-0.276,0.224-0.5,0.5-0.5h53.319
											c0.276,0,0.5,0.224,0.5,0.5C231.787,151.128,231.564,151.352,231.287,151.352z"/>
									</g>
								</g>
							</g>
							<g>
								<g>
									<g>
										<path style="fill:#A4ACE3;" d="M231.287,156.352h-53.319c-0.276,0-0.5-0.224-0.5-0.5c0-0.276,0.224-0.5,0.5-0.5h53.319
											c0.276,0,0.5,0.224,0.5,0.5C231.787,156.128,231.564,156.352,231.287,156.352z"/>
									</g>
								</g>
							</g>
						</g>
						<g>
							<g>
								<g>
									<g>
										<path style="fill:#A4ACE3;" d="M231.287,162.756h-53.319c-0.276,0-0.5-0.224-0.5-0.5s0.224-0.5,0.5-0.5h53.319
											c0.276,0,0.5,0.224,0.5,0.5S231.564,162.756,231.287,162.756z"/>
									</g>
								</g>
							</g>
							<g>
								<g>
									<g>
										<path style="fill:#A4ACE3;" d="M231.287,167.756h-53.319c-0.276,0-0.5-0.224-0.5-0.5s0.224-0.5,0.5-0.5h53.319
											c0.276,0,0.5,0.224,0.5,0.5S231.564,167.756,231.287,167.756z"/>
									</g>
								</g>
							</g>
						</g>
					</g>
				</g>
			</g>
			<g>
				<g>
					<g>
						<path style="fill:#D5D9F2;" d="M70.919,351.146h161.033c5.523,0,10-4.477,10-10V225.502c0-5.523-4.477-10-10-10H70.919
							c-5.523,0-10,4.477-10,10v115.644C60.919,346.669,65.396,351.146,70.919,351.146z"/>
					</g>
					<g>
						<path style="fill:#A4ACE3;" d="M241.952,236.174H60.919v-10.671c0-5.523,4.477-10,10-10h161.033c5.523,0,10,4.477,10,10
							V236.174z"/>
					</g>
					<g>
						<path style="fill:#A4ACE3;" d="M231.952,351.646H70.919c-5.79,0-10.5-4.71-10.5-10.5V225.502c0-5.79,4.71-10.5,10.5-10.5
							h161.033c5.79,0,10.5,4.71,10.5,10.5v115.644C242.452,346.936,237.741,351.646,231.952,351.646z M70.919,216.002
							c-5.238,0-9.5,4.262-9.5,9.5v115.644c0,5.238,4.262,9.5,9.5,9.5h161.033c5.238,0,9.5-4.262,9.5-9.5V225.502
							c0-5.238-4.262-9.5-9.5-9.5H70.919z"/>
					</g>
					<g>
						<g>
							<path style="fill:#D5D9F2;" d="M234.798,225.502c0,1.572-1.275,2.847-2.847,2.847c-1.572,0-2.847-1.274-2.847-2.847
								c0-1.572,1.275-2.847,2.847-2.847C233.524,222.656,234.798,223.93,234.798,225.502z"/>
						</g>
						<g>
							<path style="fill:#D5D9F2;" d="M224.796,225.502c0,1.572-1.274,2.847-2.846,2.847c-1.572,0-2.847-1.274-2.847-2.847
								c0-1.572,1.274-2.847,2.847-2.847C223.521,222.656,224.796,223.93,224.796,225.502z"/>
						</g>
						<g>
							<path style="fill:#D5D9F2;" d="M214.793,225.502c0,1.572-1.275,2.847-2.847,2.847c-1.572,0-2.847-1.274-2.847-2.847
								c0-1.572,1.274-2.847,2.847-2.847C213.518,222.656,214.793,223.93,214.793,225.502z"/>
						</g>
					</g>
				</g>
				<g>
					<g>
						<g>
							<path style="fill:#A4ACE3;" d="M72.693,341.373h159.459c2.086-2.124,2.048-5.369,0.195-7.573
								c-1.853-2.205-5.646-3.744-9.669-3.924c-5.87-0.263-11.77,2.148-17.389,1.069c-3.692-0.709-6.261-2.789-7.882-4.949
								c-1.62-2.161-2.549-4.508-4.356-6.612c-2.848-3.315-7.9-5.887-13.725-6.989c-5.825-1.101-12.352-0.718-17.734,1.041
								c-6.002,1.961-10.282,5.412-15.51,8.084c-5.228,2.672-12.605,4.601-18.735,2.796c-7.246-2.133-8.772-8.111-14.43-11.62
								c-6.196-3.843-16.859-3.977-24.411-1.201c-7.552,2.776-12.224,7.881-14.277,13.145
								C72.177,329.901,72.429,335.962,72.693,341.373z"/>
						</g>
					</g>
					<g>
						<g>
							<g>
								<path style="fill:#A4ACE3;" d="M76.267,256.648h-2.559c-2.111,0-3.839-1.692-3.839-3.759l0,0
									c0-2.068,1.727-3.759,3.839-3.759h2.559c2.111,0,3.839,1.692,3.839,3.759l0,0C80.106,254.956,78.378,256.648,76.267,256.648
									z"/>
							</g>
						</g>
						<g>
							<g>
								<path style="fill:#A4ACE3;" d="M76.267,267.637h-2.559c-2.111,0-3.839-1.692-3.839-3.759l0,0
									c0-2.068,1.727-3.759,3.839-3.759h2.559c2.111,0,3.839,1.692,3.839,3.759l0,0C80.106,265.945,78.378,267.637,76.267,267.637
									z"/>
							</g>
						</g>
						<g>
							<g>
								<path style="fill:#A4ACE3;" d="M76.267,278.625h-2.559c-2.111,0-3.839-1.692-3.839-3.759l0,0
									c0-2.068,1.727-3.759,3.839-3.759h2.559c2.111,0,3.839,1.692,3.839,3.759l0,0C80.106,276.934,78.378,278.625,76.267,278.625
									z"/>
							</g>
						</g>
						<g>
							<g>
								<path style="fill:#A4ACE3;" d="M76.267,289.614h-2.559c-2.111,0-3.839-1.692-3.839-3.759l0,0
									c0-2.068,1.727-3.759,3.839-3.759h2.559c2.111,0,3.839,1.692,3.839,3.759l0,0C80.106,287.922,78.378,289.614,76.267,289.614
									z"/>
							</g>
						</g>
						<g>
							<g>
								<path style="fill:#A4ACE3;" d="M76.267,300.603h-2.559c-2.111,0-3.839-1.692-3.839-3.759l0,0
									c0-2.068,1.727-3.759,3.839-3.759h2.559c2.111,0,3.839,1.692,3.839,3.759l0,0C80.106,298.911,78.378,300.603,76.267,300.603
									z"/>
							</g>
						</g>
					</g>
					<g>
						<g>
							<g>
								<g>
									<path style="fill:#A4ACE3;" d="M227.525,253.888H87.159c-1.031,0-1.867-0.448-1.867-1c0-0.552,0.836-1,1.867-1h140.366
										c1.031,0,1.867,0.448,1.867,1C229.392,253.441,228.556,253.888,227.525,253.888z"/>
								</g>
							</g>
						</g>
						<g>
							<g>
								<g>
									<path style="fill:#A4ACE3;" d="M227.525,264.877H87.159c-1.031,0-1.867-0.448-1.867-1c0-0.552,0.836-1,1.867-1h140.366
										c1.031,0,1.867,0.448,1.867,1C229.392,264.43,228.556,264.877,227.525,264.877z"/>
								</g>
							</g>
						</g>
						<g>
							<g>
								<g>
									<path style="fill:#A4ACE3;" d="M227.525,275.866H87.159c-1.031,0-1.867-0.448-1.867-1c0-0.552,0.836-1,1.867-1h140.366
										c1.031,0,1.867,0.448,1.867,1C229.392,275.418,228.556,275.866,227.525,275.866z"/>
								</g>
							</g>
						</g>
						<g>
							<g>
								<g>
									<path style="fill:#A4ACE3;" d="M227.525,286.855H87.159c-1.031,0-1.867-0.448-1.867-1c0-0.552,0.836-1,1.867-1h140.366
										c1.031,0,1.867,0.448,1.867,1C229.392,286.407,228.556,286.855,227.525,286.855z"/>
								</g>
							</g>
						</g>
						<g>
							<g>
								<g>
									<path style="fill:#A4ACE3;" d="M227.525,297.844H87.159c-1.031,0-1.867-0.448-1.867-1c0-0.552,0.836-1,1.867-1h140.366
										c1.031,0,1.867,0.448,1.867,1C229.392,297.396,228.556,297.844,227.525,297.844z"/>
								</g>
							</g>
						</g>
					</g>
				</g>
			</g>
		</g>
		<g>
			<path style="fill:#A4ACE3;" d="M720,470.5H30c-0.276,0-0.5-0.224-0.5-0.5s0.224-0.5,0.5-0.5H720c0.276,0,0.5,0.224,0.5,0.5
				S720.276,470.5,720,470.5z"/>
		</g>
	</g>
	<g>
		<g>
			<g>
				<g>
					<polygon style="fill:#E48A68;" points="580.799,441.94 576.993,460.801 566.08,460.801 566.439,442.707 					"/>
				</g>
				<g>
					<path style="fill:#FFFFFF;" d="M539.114,467.49h44.319c0.126-1.336-0.832-4.966-1.79-6.277
						c-0.05-1.966-0.462-6.696-3.382-6.696c-2.92,0-4.181,4.226-7.055,4.226s-3.277-4.84-6.454-4.84s-5.092,3.529-5.092,3.529
						l-14.153,4.038C542.526,462.32,540.142,464.565,539.114,467.49L539.114,467.49z"/>
				</g>
				<g>
					<path style="fill:#2C2F37;" d="M583.681,470h-44.814c-0.262,0-0.474-0.212-0.474-0.474v-1.562c0-0.262,0.212-0.474,0.474-0.474
						h44.814c0.262,0,0.474,0.212,0.474,0.474v1.562C584.155,469.788,583.943,470,583.681,470z"/>
				</g>
			</g>
			<g>
				<g>
					<polygon style="fill:#E48A68;" points="625.108,406.857 640.167,418.526 632.334,426.124 615.335,417.406 					"/>
				</g>
				<g>
					<path style="fill:#FFFFFF;" d="M617.635,449.701l31.812-30.858c-0.84-1.047-4.055-2.986-5.655-3.259
						c-1.405-1.376-4.994-4.485-7.09-2.452c-2.096,2.033-0.059,5.944-2.122,7.945c-2.063,2.001-5.722-1.193-8.002,1.019
						c-2.28,2.212-1.198,6.079-1.198,6.079l-7.347,12.753C616.485,443.615,616.336,446.885,617.635,449.701L617.635,449.701z"/>
				</g>
				<g>
					<path style="fill:#2C2F37;" d="M651.372,420.473l-32.167,31.202c-0.188,0.182-0.488,0.178-0.671-0.01l-1.087-1.121
						c-0.182-0.188-0.178-0.488,0.01-0.671l32.167-31.202c0.188-0.182,0.488-0.178,0.671,0.01l1.087,1.121
						C651.565,419.99,651.56,420.29,651.372,420.473z"/>
				</g>
			</g>
			<g>
				<g>
					<path style="fill:#5766CC;" d="M562.877,273.419c-4.769,12.696-18.039,70.129-18.039,83.606
						c0,13.477,62.409,59.299,71.325,65.727l13.27-17.831c-13.27-15.343-45.822-50.846-53.079-56.835l30.894-73.247L562.877,273.419
						z"/>
				</g>
				<g>
					<path style="fill:#5766CC;" d="M623.95,272.965c3.41,15.015-9.039,62.496-34.849,92.353c0.73,15.136-0.815,58.055-3.878,78.582
						h-22.554c-1.451-15.136-7.049-68.837-5.183-80.862c1.866-12.026,22.072-75.388,28.248-88.2L623.95,272.965z"/>
				</g>
				<g>
					<g>
						<path style="fill:#2837A1;" d="M557.167,374.888c-0.203,0-0.37-0.162-0.375-0.365c-0.137-5.396-0.027-9.28,0.324-11.543
							c1.901-12.256,22.253-75.802,28.28-88.305c0.091-0.187,0.315-0.265,0.501-0.175c0.186,0.09,0.265,0.314,0.175,0.501
							c-6.014,12.474-26.318,75.868-28.216,88.094c-0.344,2.219-0.45,6.058-0.315,11.408c0.005,0.207-0.158,0.38-0.365,0.385
							C557.172,374.888,557.17,374.888,557.167,374.888z"/>
					</g>
					<g>
						<path style="fill:#2837A1;" d="M588.601,402.58c-0.005,0-0.011,0-0.017,0c-0.207-0.01-0.367-0.185-0.358-0.392
							c0.662-14.974,0.858-29.439,0.5-36.853c-0.004-0.097,0.028-0.191,0.092-0.264c0.678-0.784,1.348-1.582,2.008-2.39
							c0.132-0.16,0.369-0.184,0.527-0.053c0.16,0.131,0.184,0.367,0.053,0.527c-0.632,0.775-1.273,1.539-1.923,2.292
							c0.354,7.586,0.161,21.647-0.507,36.772C588.967,402.423,588.801,402.58,588.601,402.58z"/>
					</g>
					<g>
						<path style="fill:#2837A1;" d="M557.334,364.395c-0.172,0-0.326-0.118-0.365-0.292c-0.046-0.202,0.08-0.402,0.282-0.448
							c3.5-0.797,7.222-0.919,10.765-0.354c0.205,0.032,0.345,0.225,0.312,0.429c-0.032,0.205-0.227,0.346-0.429,0.311
							c-3.45-0.549-7.074-0.43-10.482,0.344C557.388,364.392,557.361,364.395,557.334,364.395z"/>
					</g>
					<g>
						<path style="fill:#2837A1;" d="M617.933,300.739c-0.056,0-0.111-0.012-0.164-0.038c-4.131-2.012-7.458-5.622-9.127-9.905
							c-1.669-4.281-1.662-9.19,0.018-13.467c0.075-0.194,0.295-0.291,0.485-0.212c0.193,0.075,0.288,0.293,0.212,0.485
							c-1.611,4.104-1.617,8.814-0.016,12.922c1.602,4.108,4.793,7.572,8.756,9.503c0.187,0.091,0.264,0.314,0.173,0.501
							C618.206,300.661,618.072,300.739,617.933,300.739z"/>
					</g>
					<g>
						<path style="fill:#2837A1;" d="M583.334,441.755c-0.009,0-0.018,0-0.028-0.001c-0.207-0.016-0.361-0.196-0.346-0.402
							c1.759-23.181,2.764-47.896,3.735-71.797l0.065-1.613c-0.442-0.537-1.09-1.176-1.797-1.398
							c-0.148-0.046-0.252-0.179-0.262-0.334c-0.01-0.154,0.076-0.3,0.218-0.364c0.418-0.192,0.852-0.446,1.272-0.691
							c0.317-0.186,0.644-0.377,0.972-0.547c-0.146-0.27-0.282-0.55-0.419-0.83c-0.19-0.388-0.378-0.776-0.591-1.13
							c-0.082-0.137-0.069-0.31,0.033-0.433c14.459-17.394,25.131-38.151,30.863-60.029c0.053-0.2,0.259-0.322,0.457-0.268
							c0.2,0.052,0.32,0.257,0.268,0.457c-5.737,21.9-16.4,42.682-30.845,60.117c0.171,0.307,0.33,0.632,0.488,0.956
							c0.189,0.387,0.377,0.774,0.589,1.127c0.055,0.092,0.068,0.202,0.037,0.304c-0.031,0.103-0.106,0.186-0.202,0.23
							c-0.418,0.192-0.853,0.446-1.272,0.691c-0.213,0.125-0.429,0.252-0.648,0.373c0.618,0.385,1.143,0.945,1.512,1.409
							c0.057,0.07,0.085,0.158,0.082,0.249l-0.071,1.754c-0.973,23.908-1.978,48.63-3.737,71.823
							C583.693,441.606,583.528,441.755,583.334,441.755z"/>
					</g>
					<g>
						<path style="fill:#2837A1;" d="M578.577,307.773c-0.073,0-0.146-0.021-0.211-0.065c-3.603-2.453-6.656-6.247-8.378-10.409
							c-0.035-0.087-0.038-0.183-0.006-0.27l7.525-20.857c0.069-0.196,0.282-0.299,0.479-0.226c0.195,0.07,0.296,0.285,0.225,0.48
							l-7.475,20.72c1.677,3.978,4.604,7.596,8.051,9.943c0.171,0.116,0.216,0.35,0.099,0.521
							C578.814,307.715,578.696,307.773,578.577,307.773z"/>
					</g>
					<g>
						<path style="fill:#2837A1;" d="M594.685,283.615c-10.363,0-20.723-1.37-30.776-4.108c-0.2-0.055-0.317-0.261-0.263-0.461
							c0.053-0.2,0.255-0.324,0.46-0.263c19.392,5.282,39.935,5.442,59.411,0.46c0.205-0.049,0.406,0.07,0.456,0.271
							c0.052,0.2-0.069,0.404-0.271,0.456C614.2,282.4,604.44,283.615,594.685,283.615z"/>
					</g>
				</g>
			</g>
		</g>
		<g>
			<g>
				<path style="fill:#7D3119;" d="M577.078,147.511c-2.457-2.355-4.101-5.543-4.594-8.911c-0.306-2.085-0.166-4.226,0.382-6.258
					c0.597-2.211,2.49-3.877,4.759-4.186c9.246-1.26,18.869,0.943,26.771,5.951c1.287,0.815,2.101,2.233,2.078,3.756
					c-0.024,1.586-0.181,3.16-0.503,4.732c1.237-0.082,2.488,0.66,3.009,1.784c0.504,1.085,0.339,2.36,0.03,3.516
					c-0.785,2.946-2.406,5.589-4.006,8.184C596.461,150.957,587.009,148.303,577.078,147.511z"/>
			</g>
			<g>
				<g>
					<path style="fill:#E48A68;" d="M584.58,171.141c2.539,0.016,4.996-0.599,7.165-1.765c2.163-1.155,4.037-2.806,5.443-4.882
						l2.266-3.345v-20.077c0-4.19-3.443-7.562-7.628-7.47l-6.876,0.158c-4.064,0.087-5.781,3.699-7.301,7.464
						c-1.842,4.544-0.36,7.421-0.512,12.302c-0.016,0.561-0.055,1.144-0.12,1.749c-0.027,0.24-0.06,0.485-0.093,0.736
						c-0.016,0.12-0.038,0.245-0.055,0.37c-0.033,0.223-0.076,0.452-0.12,0.686c-0.038,0.218-0.076,0.425-0.104,0.632
						c-0.016,0.087-0.033,0.169-0.044,0.256c-0.071,0.496-0.131,0.97-0.169,1.433c-0.044,0.441-0.065,0.877-0.076,1.291
						C576.13,168.717,581.202,171.125,584.58,171.141z"/>
				</g>
				<g>
					<g>
						<path style="fill:#E48A68;" d="M584.991,179.365c0,0,2.392,4.359,8.774,4.359c6.102,0,9.161-4.359,9.161-4.359l-3.468-18.218
							l-13.102,8.359l-0.255,1.562l-0.482,3.262L584.991,179.365z"/>
					</g>
					<g>
						<path style="fill:#2C2F37;" d="M585.619,174.33c2.476-0.521,4.803-1.672,6.759-3.313c1.924-1.609,3.454-3.691,4.416-5.993
							c-1.341,1.83-3.076,3.297-5.047,4.353c-1.735,0.931-3.643,1.514-5.646,1.688L585.619,174.33z"/>
					</g>
				</g>
				<g>
					<g>
						<path style="fill:#E48A68;" d="M596.332,157.07c0,2.761,2.238,4.999,4.999,4.999c2.761,0,5-2.238,5-4.999
							c0-2.761-2.238-4.999-5-4.999C598.57,152.07,596.332,154.309,596.332,157.07z"/>
					</g>
					<g>
						<g>
							<path style="fill:#BF603B;" d="M598.47,160.118c-0.008,0-0.016,0-0.023-0.001c-0.207-0.013-0.364-0.191-0.351-0.397
								c0.092-1.466,0.836-2.886,1.989-3.798c1.152-0.912,2.705-1.307,4.155-1.059c0.204,0.035,0.341,0.229,0.306,0.433
								c-0.035,0.203-0.224,0.336-0.433,0.306c-1.239-0.214-2.575,0.127-3.563,0.908c-0.989,0.783-1.627,2-1.706,3.257
								C598.832,159.965,598.667,160.118,598.47,160.118z"/>
						</g>
						<g>
							<path style="fill:#BF603B;" d="M603.493,159.41c-0.161,0-0.31-0.105-0.359-0.268c-0.399-1.332-1.528-2.335-2.876-2.557
								c-0.204-0.034-0.343-0.227-0.31-0.431s0.218-0.345,0.431-0.31c1.629,0.268,2.992,1.477,3.474,3.082
								c0.06,0.198-0.054,0.407-0.252,0.467C603.564,159.405,603.528,159.41,603.493,159.41z"/>
						</g>
					</g>
				</g>
				<g>
					<g>
						<path style="fill:#2C2F37;" d="M585.442,157.551c-0.052,0-0.104-0.011-0.153-0.033c-0.434-0.195-0.924-0.415-1.296-0.809
							c-0.382-0.402-0.647-1.079-0.38-1.684c0.13-0.295,0.353-0.501,0.552-0.684l0.159-0.151c0.531-0.532,0.754-1.264,0.847-1.785
							c0.125-0.701,0.106-1.439,0.087-2.152c-0.005-0.207,0.158-0.379,0.365-0.385c0.205,0.028,0.379,0.159,0.385,0.365
							c0.019,0.751,0.04,1.528-0.099,2.304c-0.16,0.898-0.524,1.653-1.054,2.183c-0.06,0.059-0.121,0.116-0.183,0.172
							c-0.157,0.145-0.307,0.283-0.374,0.436c-0.127,0.288,0.035,0.651,0.239,0.866c0.271,0.287,0.671,0.466,1.058,0.64
							c0.189,0.085,0.273,0.307,0.188,0.496C585.721,157.468,585.585,157.551,585.442,157.551z"/>
					</g>
					<g>
						<g>
							<g>
								<path style="fill:#7D3119;" d="M583.326,146.572c0.028,0.277-0.033,0.563-0.17,0.805c-0.137,0.242-0.346,0.433-0.598,0.552
									c-0.538-0.357-1.1-0.725-1.74-0.809c-0.586-0.078-1.185,0.094-1.702,0.38c-0.518,0.286-1,0.676-1.433,1.078
									c-0.165-0.011-0.309-0.161-0.314-0.326c0.497-1.009,1.485-1.871,2.61-2.196
									C581.104,145.732,582.332,145.954,583.326,146.572z"/>
							</g>
							<g>
								<path style="fill:#2C2F37;" d="M582.799,152.435c-0.148,0-0.288-0.088-0.348-0.234c-0.302-0.744-0.931-1.137-1.816-1.137
									c-0.85,0-1.58,0.435-1.954,1.163c-0.096,0.184-0.32,0.256-0.506,0.162c-0.184-0.095-0.256-0.321-0.162-0.505
									c0.506-0.983,1.486-1.57,2.622-1.57c1.199,0,2.091,0.57,2.512,1.605c0.078,0.192-0.015,0.411-0.206,0.489
									C582.894,152.427,582.846,152.435,582.799,152.435z"/>
							</g>
							<g>
								<path style="fill:#2C2F37;" d="M581.535,151.999c0,0.723-0.428,1.309-0.957,1.309c-0.529,0-0.957-0.586-0.957-1.309
									c0-0.723,0.428-1.309,0.957-1.309C581.107,150.689,581.535,151.276,581.535,151.999z"/>
							</g>
						</g>
						<g>
							<g>
								<path style="fill:#7D3119;" d="M587.808,146.572c-0.028,0.277,0.033,0.563,0.17,0.805c0.137,0.242,0.346,0.433,0.598,0.552
									c0.538-0.357,1.1-0.725,1.741-0.809c0.586-0.078,1.185,0.094,1.702,0.38c0.518,0.286,1,0.676,1.433,1.078
									c0.165-0.011,0.309-0.161,0.313-0.326c-0.497-1.009-1.485-1.871-2.609-2.196
									C590.03,145.732,588.802,145.954,587.808,146.572z"/>
							</g>
							<g>
								<path style="fill:#2C2F37;" d="M588.335,152.435c-0.047,0-0.095-0.009-0.142-0.027c-0.191-0.078-0.284-0.297-0.206-0.489
									c0.421-1.035,1.313-1.605,2.512-1.605c1.136,0,2.116,0.587,2.622,1.57c0.094,0.184,0.022,0.41-0.162,0.505
									c-0.188,0.094-0.41,0.022-0.506-0.162c-0.374-0.728-1.104-1.163-1.954-1.163c-0.886,0-1.515,0.393-1.816,1.137
									C588.623,152.347,588.482,152.435,588.335,152.435z"/>
							</g>
							<g>
								<path style="fill:#2C2F37;" d="M591.513,151.999c0,0.723-0.429,1.309-0.957,1.309c-0.529,0-0.957-0.586-0.957-1.309
									c0-0.723,0.428-1.309,0.957-1.309C591.084,150.689,591.513,151.276,591.513,151.999z"/>
							</g>
						</g>
					</g>
					<g>
						<g>
							<path style="fill:#BF603B;" d="M585.959,166.622c-0.053,0-0.106-0.011-0.157-0.035c-0.885-0.408-1.56-0.421-2.413-0.039
								c-0.188,0.084-0.411,0.001-0.495-0.189c-0.085-0.189-0.001-0.411,0.188-0.496c1.047-0.468,1.953-0.457,3.034,0.043
								c0.188,0.087,0.271,0.309,0.184,0.497C586.236,166.542,586.1,166.622,585.959,166.622z"/>
						</g>
					</g>
					<g>
						<g>
							<g>
								<path style="fill:#BF513B;" d="M589.563,157.07c0,0.472,1.152,0.854,2.572,0.854c1.421,0,2.572-0.383,2.572-0.854
									c0-0.472-1.152-0.854-2.572-0.854C590.715,156.215,589.563,156.598,589.563,157.07z"/>
							</g>
						</g>
						<g>
							<g>
								<path style="fill:#BF513B;" d="M576.648,157.7c0.458,0.142,1.063,0.223,1.727,0.223c1.422,0,2.572-0.381,2.572-0.855
									c0-0.469-1.15-0.85-2.572-0.85c-0.561,0-1.079,0.06-1.504,0.163c-0.033,0.223-0.076,0.452-0.12,0.686
									C576.713,157.286,576.675,157.493,576.648,157.7z"/>
							</g>
						</g>
					</g>
					<g>
						<path style="fill:#FFFFFF;" d="M581.448,161.223c2.51,0.218,5.075-0.225,7.367-1.271c-0.273,1.106-0.793,2.157-1.707,2.837
							c-0.914,0.681-2.122,0.983-3.231,0.72S581.762,162.318,581.448,161.223z"/>
					</g>
				</g>
			</g>
			<g>
				<path style="fill:#7D3119;" d="M602.34,139.165v13.01c-0.33-0.06-0.66-0.1-1.01-0.1c-2.07,0-3.85,1.25-4.61,3.04
					c-0.44-0.22-0.81-0.61-1.02-1.06c-0.4-0.85-0.36-1.82-0.31-2.76c0.15-2.74,0.3-5.49,0.45-8.24c-6.33-2.22-13.41-1.97-19.48,0.88
					l1.62-6.55l4.82-4.71l13.99,0.51L602.34,139.165z"/>
			</g>
		</g>
		<g>
			<g>
				<path style="fill:#FFFFFF;" d="M561.082,186.244c-4.987,3.058-9.124,34.534-9.124,34.534s-8.621-14.071-12.291-15.038
					c-3.67-0.967-7.441,3.949-8.303,7.13c-0.862,3.181,19.526,31.233,24.298,33.547c4.772,2.313,10.039,0,10.039,0l7.747-48.48
					L561.082,186.244z"/>
			</g>
			<g>
				<g>
					<path style="fill:#FFFFFF;" d="M624.81,202.495c-1.47,6.29,3.17,64.37-0.86,70.47c-4.03,6.1-59.78,5.12-62.59,0.85
						s2.26-66.11,5.76-75.57c-5.87-1.28-8.59-10.3-6.04-12c2.55-1.7,20.42-6.47,23.91-6.88c0,0,2.39,4.36,8.77,4.36
						c6.11,0,9.17-4.36,9.17-4.36c2.99,0.33,22.33,4.16,23.94,6.71C628.49,188.625,631.62,200.705,624.81,202.495z"/>
				</g>
				<g>
					<path style="fill:#C8C3CA;" d="M561.205,247.821c-0.008,0-0.016,0-0.023-0.001c-0.206-0.013-0.363-0.191-0.351-0.397
						c1.188-19.213,3.798-43.529,5.941-49.312c0.071-0.194,0.287-0.294,0.482-0.221c0.194,0.072,0.294,0.288,0.222,0.482
						c-2.053,5.538-4.706,29.858-5.896,49.097C561.567,247.668,561.402,247.821,561.205,247.821z"/>
				</g>
				<g>
					<g>
						<path style="fill:#C8C3CA;" d="M620.456,271.242c-0.025,0-0.051-0.003-0.076-0.008c-0.203-0.042-0.333-0.241-0.291-0.443
							c2.588-12.412,1.462-25.342,0.372-37.847c-0.744-8.543-1.514-17.376-1.112-26.037c0.01-0.207,0.186-0.369,0.393-0.357
							c0.207,0.009,0.366,0.185,0.357,0.392c-0.4,8.61,0.367,17.419,1.109,25.937c1.095,12.559,2.225,25.545-0.385,38.064
							C620.786,271.121,620.63,271.242,620.456,271.242z"/>
					</g>
					<g>
						<g>
							<path style="fill:#C8C3CA;" d="M565.7,204.585c-0.15,0-0.292-0.091-0.35-0.239c-0.797-2.048-1.425-4.179-1.866-6.333
								c-0.042-0.203,0.089-0.401,0.292-0.442c0.207-0.047,0.401,0.089,0.442,0.292c0.434,2.112,1.05,4.202,1.831,6.211
								c0.075,0.193-0.021,0.41-0.214,0.485C565.791,204.577,565.745,204.585,565.7,204.585z"/>
						</g>
					</g>
				</g>
				<g>
					<g>
						<polygon style="fill:#C8C3CA;" points="591.475,183.52 602.329,176.233 607.834,180.218 598.342,189.234 						"/>
					</g>
					<g>
						<polygon style="fill:#C8C3CA;" points="591.475,183.52 585.148,178.104 580.048,180.398 587.367,188.973 						"/>
					</g>
					<g>
						<g>
							<path style="fill:#C8C3CA;" d="M585.855,277.655c-0.198,0-0.364-0.155-0.374-0.355c-2.126-40.68,1.633-66.125,4.12-82.964
								c0.603-4.08,1.123-7.603,1.501-10.858c0.023-0.205,0.202-0.349,0.415-0.33c0.206,0.024,0.353,0.21,0.329,0.415
								c-0.378,3.267-0.899,6.795-1.503,10.881c-2.483,16.809-6.235,42.211-4.114,82.816c0.012,0.207-0.147,0.383-0.354,0.393
								C585.868,277.655,585.861,277.655,585.855,277.655z"/>
						</g>
						<g>
							<g>
								<path style="fill:#C8C3CA;" d="M593.357,191.533c-1.287,0-1.289,2,0,2C594.643,193.533,594.646,191.533,593.357,191.533z"/>
							</g>
							<g>
								<path style="fill:#C8C3CA;" d="M592.014,199.887c-1.287,0-1.289,2,0,2C593.301,201.887,593.303,199.887,592.014,199.887z"/>
							</g>
							<g>
								<path style="fill:#C8C3CA;" d="M590.671,208.091c-1.287,0-1.289,2,0,2C591.958,210.091,591.96,208.091,590.671,208.091z"/>
							</g>
							<g>
								<path style="fill:#C8C3CA;" d="M589.478,220.026c-1.287,0-1.289,2,0,2C590.765,222.026,590.767,220.026,589.478,220.026z"/>
							</g>
							<g>
								<path style="fill:#C8C3CA;" d="M589.03,230.766c-1.287,0-1.289,2,0,2C590.317,232.766,590.319,230.766,589.03,230.766z"/>
							</g>
							<g>
								<path style="fill:#C8C3CA;" d="M588.434,241.656c-1.287,0-1.289,2,0,2C589.72,243.656,589.723,241.656,588.434,241.656z"/>
							</g>
							<g>
								<path style="fill:#C8C3CA;" d="M588.434,254.187c-1.287,0-1.289,2,0,2C589.72,256.187,589.723,254.187,588.434,254.187z"/>
							</g>
							<g>
								<path style="fill:#C8C3CA;" d="M588.135,268.061c-1.287,0-1.289,2,0,2C589.422,270.061,589.424,268.061,588.135,268.061z"/>
							</g>
						</g>
					</g>
				</g>
			</g>
			<g>
				<g>
					<path style="fill:#2C2F37;" d="M619.29,292.367L619.29,292.367c-2.927,2.385-7.234,1.946-9.619-0.982l-81.248-99.401
						l10.601-8.637l81.248,99.401C622.657,285.676,622.217,289.983,619.29,292.367z"/>
				</g>
				<g>
					
						<rect x="523.49" y="178.119" transform="matrix(-0.7752 0.6317 -0.6317 -0.7752 1057.3669 -9.2354)" style="fill:#EBB044;" width="13.674" height="10.757"/>
				</g>
				<g style="opacity:0.3;">
					<g>
						<path style="fill:#FFFFFF;" d="M462.673,107.102l73.247,57.58c1.666-2.818,3.039-5.825,4.104-8.999
							c3.645-10.845,3.083-22.107-0.791-32.008l-62.231-26.122c-0.818,0.353-1.633,0.725-2.438,1.127
							C470.128,100.89,466.126,103.73,462.673,107.102z"/>
					</g>
					<g>
						<path style="fill:#FFFFFF;" d="M452.616,121.531l54.255,64.801c3.263-0.817,6.461-1.992,9.546-3.531
							c5.818-2.896,10.876-6.879,14.947-11.696l-73.163-58.972C455.997,115.011,454.116,118.164,452.616,121.531z"/>
					</g>
					<g>
						<path style="fill:#FFFFFF;" d="M448.891,134.799l34.903,51.436c5.509,1.429,11.152,1.84,16.697,1.24l-50.289-59.205
							C449.6,130.44,449.162,132.619,448.891,134.799z"/>
					</g>
				</g>
				<g>
					<g>
						<path style="fill:#2C2F37;" d="M518.906,187.806c-12.571,6.255-26.825,7.24-40.137,2.773
							c-27.481-9.22-42.336-39.079-33.116-66.559c4.467-13.313,13.85-24.088,26.421-30.343c12.571-6.255,26.826-7.239,40.138-2.773
							l0,0c27.48,9.22,42.336,39.079,33.115,66.559c-3.051,9.094-8.396,17.004-15.486,23.098
							C526.554,183.388,522.89,185.824,518.906,187.806z M510.433,96.205c-11.896-3.991-24.635-3.111-35.869,2.478
							c-11.236,5.59-19.62,15.22-23.611,27.115c-8.24,24.557,5.035,51.24,29.593,59.481c11.896,3.991,24.635,3.111,35.869-2.479
							c11.234-5.589,19.619-15.219,23.611-27.115C548.267,131.128,534.991,104.445,510.433,96.205L510.433,96.205z"/>
					</g>
				</g>
			</g>
			<g>
				<g>
					<g>
						<path style="fill:#E48A68;" d="M608.659,255.187c-5.806,0.555-12.179,2.821-13.737,3.67s-7.008,8.356-7.753,9.559
							c-0.744,1.204,0.362,3.266,2.734,1.371c0,0-1.919,2.549-2.734,3.669c-0.815,1.121,0.969,2.083,2.102,1.295
							c1.133-0.788,3.869-2.723,3.869-2.723s-1.476,2.415-2.609,3.824c-1.134,1.409,0.693,2.975,2.322,1.63
							c1.629-1.345,3.839-4.025,3.839-4.025s-1.736,2.898-2.903,5.157c-1.104,2.136,1.487,2.195,2.762,0.85
							c1.274-1.345,5.806-5.523,6.019-6.869c1.558,0.283,10.025-2.412,12.377-4.534L608.659,255.187z"/>
					</g>
					<g>
						<g>
							<path style="fill:#BF603B;" d="M595.807,275.213c-0.066,0-0.131-0.017-0.191-0.052c-0.179-0.105-0.238-0.335-0.133-0.514
								c1.205-2.047,2.638-3.968,4.257-5.71c0.14-0.153,0.378-0.161,0.529-0.02c0.152,0.141,0.161,0.378,0.019,0.529
								c-1.582,1.703-2.982,3.581-4.159,5.581C596.06,275.147,595.935,275.213,595.807,275.213z"/>
						</g>
						<g>
							<path style="fill:#BF603B;" d="M591.922,273.793c-0.073,0-0.147-0.022-0.213-0.066c-0.17-0.117-0.214-0.351-0.096-0.521
								c1.77-2.574,3.825-4.964,6.107-7.101c0.15-0.143,0.389-0.134,0.529,0.018c0.142,0.15,0.134,0.388-0.017,0.529
								c-2.242,2.101-4.262,4.448-6.002,6.979C592.158,273.737,592.041,273.793,591.922,273.793z"/>
						</g>
						<g>
							<path style="fill:#BF603B;" d="M589.274,270.708c-0.076,0-0.153-0.023-0.22-0.071c-0.168-0.121-0.205-0.355-0.084-0.523
								c1.74-2.405,3.764-4.611,6.015-6.557c0.155-0.137,0.394-0.119,0.528,0.038c0.136,0.156,0.119,0.394-0.038,0.529
								c-2.206,1.907-4.19,4.07-5.897,6.429C589.505,270.655,589.39,270.708,589.274,270.708z"/>
						</g>
					</g>
				</g>
				<g>
					<g>
						<path style="fill:#FFFFFF;" d="M626.872,186.074c6.005,4.529,35.213,43.859,31.888,51.378
							c-3.326,7.519-43.813,32.1-43.813,32.1l-9.833-16.773c4.338-2.747,21.979-16.195,25.738-17.93
							c-5.822-6.645-17.352-25.42-16.918-30.64C614.368,198.99,626.872,186.074,626.872,186.074z"/>
					</g>
					<g>
						<g>
							<path style="fill:#C8C3CA;" d="M614.947,269.928c-0.126,0-0.25-0.064-0.32-0.181c-0.107-0.177-0.052-0.407,0.126-0.515
								c0.044-0.027,4.526-2.751,10.532-6.596c0.173-0.111,0.405-0.063,0.518,0.113c0.112,0.175,0.062,0.406-0.113,0.518
								c-6.015,3.851-10.503,6.578-10.548,6.605C615.081,269.91,615.013,269.928,614.947,269.928z"/>
						</g>
						<g>
							<path style="fill:#C8C3CA;" d="M624.988,227.325c-0.121,0-0.239-0.059-0.312-0.167c-5.579-8.354-11.438-19.109-11.116-22.98
								c0.018-0.205,0.184-0.359,0.405-0.342c0.206,0.017,0.359,0.198,0.343,0.405c-0.293,3.527,5.308,13.989,10.991,22.501
								c0.115,0.172,0.069,0.405-0.104,0.52C625.133,227.305,625.06,227.325,624.988,227.325z"/>
						</g>
						<g>
							<path style="fill:#C8C3CA;" d="M605.114,253.155c-0.124,0-0.245-0.062-0.316-0.175c-0.111-0.175-0.06-0.406,0.116-0.517
								c1.678-1.063,5.469-3.817,9.482-6.732c3.601-2.615,7.682-5.58,10.878-7.789c0.169-0.116,0.403-0.075,0.521,0.095
								c0.117,0.17,0.075,0.404-0.096,0.522c-3.188,2.204-7.266,5.165-10.862,7.778c-4.199,3.05-7.825,5.684-9.523,6.759
								C605.253,253.136,605.183,253.155,605.114,253.155z"/>
						</g>
						<g>
							<path style="fill:#C8C3CA;" d="M636.455,235.632c-0.009,0-0.018,0-0.027-0.001l-5.603-0.407
								c-0.206-0.015-0.361-0.195-0.347-0.401c0.016-0.206,0.17-0.356,0.401-0.347l5.603,0.407c0.206,0.015,0.361,0.195,0.347,0.401
								C636.814,235.482,636.65,235.632,636.455,235.632z"/>
						</g>
					</g>
				</g>
			</g>
			<g>
				<g>
					<path style="fill:#E48A68;" d="M539.965,207.775c0.548,0.878,0.783,1.947,0.654,2.973s-0.621,2.004-1.369,2.719
						c-2.103,0.358-4.358-0.507-5.89-1.991c-1.533-1.484-2.43-3.541-2.771-5.646c-0.342-2.106-0.746-4.466,0.228-6.363
						c0.735-1.433,4.448-4.35,5.995-5.145c1.547-0.796,2.608,0.354,1.724,1.547c-0.884,1.193-1.989,2.372-1.989,2.372
						s2.387-1.665,3.58-2.328c1.193-0.663,3.049,0.513,1.503,2.024c-1.547,1.511-2.829,2.881-2.829,2.881s2.238-1.37,3.417-1.9
						c1.179-0.53,2.991,0.775,1.621,2.155c-1.37,1.381-3.403,3.136-3.403,3.136s1.591-0.562,2.961-1.048
						c1.37-0.486,2.784,0.972,1.149,2.033C542.909,206.255,539.965,207.775,539.965,207.775z"/>
				</g>
				<g>
					<g>
						<path style="fill:#BF603B;" d="M533.751,201.043c-0.099,0-0.198-0.039-0.272-0.116c-0.142-0.15-0.137-0.388,0.013-0.53
							c1.22-1.161,2.504-2.276,3.816-3.312c0.163-0.126,0.398-0.101,0.526,0.062c0.129,0.163,0.101,0.398-0.062,0.527
							c-1.295,1.022-2.561,2.121-3.764,3.266C533.937,201.009,533.843,201.043,533.751,201.043z"/>
					</g>
					<g>
						<path style="fill:#BF603B;" d="M536.133,203.359c-0.092,0-0.184-0.034-0.256-0.101c-0.151-0.142-0.159-0.379-0.019-0.53
							c1.183-1.265,2.649-2.398,4.024-3.108c0.182-0.096,0.41-0.024,0.505,0.161c0.096,0.184,0.023,0.41-0.161,0.505
							c-1.302,0.673-2.693,1.749-3.819,2.954C536.334,203.319,536.234,203.359,536.133,203.359z"/>
					</g>
					<g>
						<path style="fill:#BF603B;" d="M538.06,206.055c-0.116,0-0.231-0.054-0.305-0.157c-0.121-0.169-0.082-0.402,0.086-0.523
							c1.068-0.765,2.226-1.412,3.44-1.921c0.192-0.081,0.41,0.009,0.491,0.201c0.08,0.191-0.01,0.411-0.2,0.491
							c-1.163,0.488-2.271,1.107-3.293,1.839C538.212,206.033,538.136,206.055,538.06,206.055z"/>
					</g>
				</g>
			</g>
		</g>
	</g>
	<g>
		<g>
			<g>
				<g>
					<polygon style="fill:#9C4825;" points="185.171,439.82 191.622,460.801 202.535,460.801 199.531,440.587 					"/>
				</g>
				<g>
					<path style="fill:#FFFFFF;" d="M229.501,467.49h-44.319c-0.126-1.336,0.832-4.966,1.79-6.277
						c0.051-1.966,0.462-6.696,3.382-6.696s4.181,4.226,7.055,4.226c2.874,0,3.277-4.84,6.454-4.84c3.176,0,5.092,3.529,5.092,3.529
						l14.153,4.038C226.089,462.32,228.473,464.565,229.501,467.49L229.501,467.49z"/>
				</g>
				<g>
					<path style="fill:#2C2F37;" d="M184.934,470h44.814c0.262,0,0.474-0.212,0.474-0.474v-1.562c0-0.262-0.212-0.474-0.474-0.474
						h-44.814c-0.262,0-0.474,0.212-0.474,0.474v1.562C184.46,469.788,184.673,470,184.934,470z"/>
				</g>
			</g>
			<g>
				<g>
					<polygon style="fill:#9C4825;" points="105.967,439.82 104.613,460.801 115.526,460.801 120.327,440.587 					"/>
				</g>
				<g>
					<path style="fill:#FFFFFF;" d="M142.492,467.49H98.173c-0.126-1.336,0.832-4.966,1.79-6.277
						c0.05-1.966,0.462-6.696,3.382-6.696c2.92,0,4.181,4.226,7.055,4.226c2.874,0,3.277-4.84,6.454-4.84
						c3.176,0,5.092,3.529,5.092,3.529l14.153,4.038C139.08,462.32,141.464,464.565,142.492,467.49L142.492,467.49z"/>
				</g>
				<g>
					<path style="fill:#2C2F37;" d="M97.925,470h44.814c0.262,0,0.474-0.212,0.474-0.474v-1.562c0-0.262-0.212-0.474-0.474-0.474
						H97.925c-0.262,0-0.474,0.212-0.474,0.474v1.562C97.451,469.788,97.663,470,97.925,470z"/>
				</g>
			</g>
			<g>
				<g>
					<g>
						<path style="fill:#2C2F37;" d="M182.202,273.817c0,34.445-37.424,142.568-59.883,170.818h-21.07
							c2.014-18.379,13.382-68.293,26.52-82.768c-4.084-24.103-0.316-64.81,13.967-87L182.202,273.817z"/>
					</g>
					<g>
						<path style="fill:#2C2F37;" d="M119.611,272.963c-4.775,18.853,8.333,61.738,31.049,87.264
							c-3.831,17.698,25.159,75.749,31.906,84.408h21.442c-3.744-22.804-34.035-148.599-46.288-169.769L119.611,272.963z"/>
					</g>
				</g>
				<g>
					<g>
						<path style="fill:#5B5D63;" d="M153.511,381.526c-0.162,0-0.312-0.105-0.359-0.269c-2.807-9.481-3.781-16.519-2.897-20.922
							c-9.018-10.177-17.249-24.038-23.188-39.057c-0.076-0.192,0.018-0.41,0.211-0.486c0.192-0.074,0.411,0.019,0.486,0.211
							c5.935,15.008,14.165,28.85,23.176,38.975c0.08,0.089,0.112,0.211,0.086,0.328c-0.923,4.267,0.033,11.243,2.844,20.738
							c0.059,0.198-0.054,0.407-0.253,0.466C153.582,381.521,153.546,381.526,153.511,381.526z"/>
					</g>
					<g>
						<path style="fill:#5B5D63;" d="M173.543,320.828c-0.163,0-0.313-0.106-0.36-0.271c-6.918-24.049-12.229-39.358-15.786-45.503
							c-0.104-0.179-0.042-0.408,0.137-0.512c0.179-0.104,0.408-0.042,0.513,0.137c3.587,6.196,8.922,21.563,15.857,45.671
							c0.057,0.199-0.058,0.406-0.257,0.464C173.611,320.824,173.577,320.828,173.543,320.828z"/>
					</g>
					<g>
						<path style="fill:#5B5D63;" d="M124.695,300.878c-0.126,0-0.248-0.063-0.319-0.177c-0.109-0.176-0.056-0.407,0.121-0.517
							c8.148-5.065,13.35-14.534,13.253-24.127c-0.002-0.207,0.164-0.377,0.371-0.379c0.001,0,0.003,0,0.004,0
							c0.205,0,0.373,0.165,0.375,0.371c0.1,9.849-5.241,19.572-13.607,24.771C124.83,300.86,124.762,300.878,124.695,300.878z"/>
					</g>
					<g>
						<path style="fill:#5B5D63;" d="M168.268,359.448c-0.203,0-0.37-0.162-0.375-0.365c-0.005-0.207,0.158-0.379,0.365-0.385
							c5.168-0.131,10.23-1.147,15.047-3.018c0.191-0.075,0.411,0.021,0.485,0.214c0.075,0.193-0.021,0.41-0.214,0.485
							c-4.898,1.902-10.045,2.935-15.299,3.068C168.275,359.448,168.271,359.448,168.268,359.448z"/>
					</g>
					<g>
						<path style="fill:#5B5D63;" d="M104.957,442.579c-0.013,0-0.026-0.001-0.039-0.002c-0.206-0.022-0.356-0.205-0.334-0.411
							c2.844-27.551,11.809-54.708,25.925-78.536c0.106-0.179,0.336-0.237,0.514-0.131c0.178,0.105,0.237,0.335,0.132,0.514
							c-14.061,23.735-22.991,50.787-25.824,78.229C105.31,442.436,105.147,442.579,104.957,442.579z"/>
					</g>
					<g>
						<path style="fill:#5B5D63;" d="M184.674,441.915c-0.137,0-0.269-0.075-0.335-0.206c-13.196-26.069-26.841-53.025-30.41-82.713
							c-12.68-16.244-22.27-35.362-27.735-55.292c-0.055-0.2,0.063-0.406,0.263-0.461c0.202-0.059,0.406,0.064,0.461,0.262
							c5.448,19.87,15.015,38.928,27.666,55.112c0.042,0.054,0.069,0.118,0.077,0.186c3.534,29.598,17.164,56.526,30.347,82.568
							c0.094,0.185,0.02,0.41-0.165,0.504C184.789,441.903,184.731,441.915,184.674,441.915z"/>
					</g>
				</g>
			</g>
		</g>
		<g>
			<g>
				<g>
					<g>
						<path style="fill:#9C4825;" d="M245.602,211.775l8.042,6.89c2.984-2.007,10.046-7.967,10.046-7.967l-9.959-10.257
							C250.923,202.252,246.943,208.465,245.602,211.775z"/>
					</g>
					<g>
						<path style="fill:#9C4825;" d="M253.732,200.442c2.038-1.402,13.276-7.316,14.302-5.874c1.025,1.442-9.479,8.276-11.109,9.193
							L253.732,200.442z"/>
					</g>
					<g>
						<g>
							<path style="fill:#9C4825;" d="M259.639,201.541c1.241-0.807,3.381,0.98,2.719,2.577c1.917-0.095,2.453,1.591,1.87,2.89
								c1.671-0.045,1.921,1.943,1.003,2.976c-0.918,1.033-5.216,3.485-6.124,3.939c-0.908,0.454-2.226-0.919-1.384-1.886
								c-1.042,0.302-2.743-0.943-1.82-1.887c-1.65,0.4-2.39-1.283-1.472-2.316C255.35,206.8,258.319,202.399,259.639,201.541z"/>
						</g>
						<g>
							<g>
								<path style="fill:#782E10;" d="M258.725,214.387c-0.503,0-0.994-0.297-1.293-0.684c-0.305-0.394-0.413-0.846-0.322-1.265
									c-0.651-0.088-1.322-0.485-1.652-1.037c-0.162-0.27-0.221-0.553-0.181-0.824c-0.582-0.042-1.077-0.328-1.37-0.814
									c-0.408-0.68-0.31-1.555,0.245-2.179c0.281-0.316,0.78-0.984,1.357-1.758c1.323-1.772,2.97-3.978,3.926-4.6
									c0.174-0.112,0.407-0.063,0.519,0.11c0.113,0.174,0.063,0.406-0.11,0.519c-0.844,0.549-2.514,2.786-3.734,4.419
									c-0.588,0.788-1.096,1.468-1.398,1.808c-0.388,0.436-0.361,0.965-0.162,1.295c0.238,0.396,0.699,0.544,1.265,0.408
									c0.163-0.042,0.331,0.034,0.414,0.179c0.083,0.145,0.06,0.328-0.058,0.448c-0.186,0.19-0.207,0.377-0.071,0.605
									c0.278,0.465,1.046,0.801,1.518,0.66c0.16-0.046,0.331,0.018,0.42,0.159c0.09,0.14,0.076,0.323-0.033,0.448
									c-0.347,0.398-0.102,0.805,0.019,0.962c0.217,0.28,0.611,0.495,0.915,0.343c0.963-0.481,5.164-2.899,6.011-3.852
									c0.137-0.156,0.375-0.169,0.529-0.031c0.155,0.138,0.169,0.374,0.031,0.529c-0.968,1.089-5.323,3.568-6.236,4.025
									C259.095,214.348,258.909,214.387,258.725,214.387z"/>
							</g>
							<g>
								<path style="fill:#782E10;" d="M257.723,212.412c-0.112,0-0.223-0.05-0.297-0.145c-0.126-0.164-0.096-0.399,0.067-0.526
									l6.505-5.029c0.165-0.126,0.399-0.095,0.526,0.067c0.126,0.164,0.096,0.399-0.067,0.526l-6.505,5.029
									C257.884,212.387,257.803,212.412,257.723,212.412z"/>
							</g>
							<g>
								<path style="fill:#782E10;" d="M255.903,210.525c-0.1,0-0.2-0.04-0.274-0.119c-0.142-0.151-0.133-0.389,0.018-0.53
									l6.455-6.032c0.151-0.141,0.389-0.134,0.53,0.018c0.142,0.151,0.133,0.389-0.018,0.53l-6.455,6.032
									C256.087,210.491,255.995,210.525,255.903,210.525z"/>
							</g>
						</g>
					</g>
					<g>
						<g>
							<path style="fill:#9C4825;" d="M245.602,211.775c0.25-1.422,3.261-9.05,4.846-9.551c1.585-0.501,9.798-0.523,10.176,0.767
								c0.378,1.291-4.468,2.915-5.746,2.6c0.123,2.237-2.366,6.974-4.91,7.359L245.602,211.775z"/>
						</g>
						<g>
							<path style="fill:#782E10;" d="M249.966,213.326c-0.182,0-0.342-0.133-0.37-0.319c-0.031-0.205,0.11-0.396,0.314-0.427
								c2.27-0.343,4.708-4.858,4.592-6.968c-0.006-0.119,0.044-0.233,0.135-0.309c0.091-0.077,0.213-0.104,0.329-0.076
								c0.843,0.209,4.127-0.728,5.101-1.745c0.071-0.074,0.232-0.26,0.195-0.385c-0.275-0.639-5.296-1.041-8.663-0.691
								c-0.198,0.025-0.391-0.128-0.412-0.334c-0.021-0.206,0.128-0.391,0.334-0.412c1.102-0.114,8.957-0.494,9.461,1.226
								c0.074,0.253,0.069,0.653-0.374,1.115c-1.005,1.049-3.871,2.003-5.335,2.003c-0.009,0-0.018,0-0.027,0
								c-0.163,2.524-2.655,6.928-5.225,7.316C250.004,213.324,249.985,213.326,249.966,213.326z"/>
						</g>
					</g>
				</g>
				<g>
					<path style="fill:#EBB044;" d="M182.479,186.244c7.317,5.868,20.908,29.891,23.601,36.49
						c7.224-4.42,39.522-14.086,39.522-14.086l9.704,11.013c-8.209,8.693-39.431,26.324-52.042,26.324
						c-12.611,0-30.732-29.87-30.732-29.87v-21.186L182.479,186.244z"/>
				</g>
				<g>
					<path style="fill:#BF8419;" d="M177.162,205.165c-0.053,0-0.107-0.011-0.159-0.036c-0.188-0.088-0.268-0.311-0.18-0.499
						c0.896-1.905,2.044-3.683,3.411-5.284c0.135-0.158,0.372-0.176,0.529-0.042c0.157,0.134,0.176,0.371,0.042,0.529
						c-1.324,1.55-2.435,3.272-3.303,5.116C177.438,205.086,177.303,205.165,177.162,205.165z"/>
				</g>
				<g>
					<g>
						<path style="fill:#BF8419;" d="M207.627,230.79c-0.186,0-0.348-0.139-0.372-0.329c-0.329-2.628-0.834-5.261-1.502-7.825
							c-0.042-0.161,0.027-0.33,0.169-0.416c0.144-0.086,0.325-0.067,0.447,0.045c1.265,1.161,2.388,2.352,3.248,3.444
							c0.128,0.163,0.1,0.398-0.063,0.526c-0.163,0.129-0.399,0.1-0.526-0.063c-0.62-0.787-1.381-1.628-2.237-2.472
							c0.523,2.196,0.929,4.433,1.208,6.667c0.026,0.205-0.12,0.393-0.326,0.418C207.658,230.789,207.643,230.79,207.627,230.79z"/>
					</g>
					<g>
						<path style="fill:#BF8419;" d="M251.377,221.838c-0.12,0-0.238-0.057-0.311-0.164c-2.581-3.79-5.518-7.372-8.729-10.646
							c-0.145-0.148-0.143-0.385,0.005-0.53c0.149-0.145,0.386-0.143,0.53,0.005c3.242,3.305,6.208,6.922,8.814,10.749
							c0.117,0.171,0.072,0.404-0.099,0.521C251.523,221.817,251.45,221.838,251.377,221.838z"/>
					</g>
				</g>
			</g>
			<g>
				<g>
					<path style="fill:#EBB044;" d="M176.438,198.241c5.871-1.276,8.594-10.295,6.041-11.997
						c-2.553-1.702-20.385-6.467-23.873-6.879h-17.935c-2.997,0.327-22.365,4.156-23.982,6.709
						c-1.617,2.553-4.747,14.634,2.06,16.421c5.736,40.277-9.569,58.03,0.862,70.468c4.697,5.6,58.921,4.41,62.591,0.854
						C194.151,262.24,179.214,228.095,176.438,198.241z"/>
				</g>
				<g>
					<g>
						<path style="fill:#BF8419;" d="M185.921,249.645c-0.183,0-0.343-0.134-0.371-0.321c-0.903-6.214-2.404-13.032-3.994-20.25
							c-2.237-10.161-4.551-20.668-5.493-30.798c-0.019-0.206,0.133-0.389,0.339-0.408c0.198-0.017,0.389,0.132,0.408,0.339
							c0.938,10.083,3.246,20.567,5.478,30.705c1.592,7.232,3.096,14.064,4.003,20.305c0.03,0.205-0.112,0.395-0.317,0.425
							C185.957,249.644,185.939,249.645,185.921,249.645z"/>
					</g>
					<g>
						<path style="fill:#BF8419;" d="M122.864,271.983c-0.133,0-0.262-0.071-0.33-0.196c-1.944-3.591-2.844-8.058-2.675-13.274
							c0.121-3.72,0.75-7.443,1.358-11.044c0.134-0.794,0.268-1.588,0.397-2.383c2.263-13.931,2.953-28.135,2.053-42.219
							c-0.014-0.206,0.144-0.385,0.35-0.398c0.21-0.015,0.385,0.144,0.398,0.35c0.904,14.14,0.211,28.401-2.061,42.387
							c-0.129,0.796-0.264,1.592-0.398,2.387c-0.604,3.577-1.229,7.275-1.348,10.943c-0.165,5.083,0.705,9.421,2.584,12.893
							c0.099,0.183,0.031,0.41-0.151,0.509C122.985,271.968,122.924,271.983,122.864,271.983z"/>
					</g>
				</g>
				<g>
					<g>
						<path style="fill:#BF8419;" d="M139.897,252.524c-0.114,0-0.227-0.052-0.3-0.15c-0.124-0.165-0.091-0.4,0.075-0.524
							c15.041-11.278,25.78-28.318,29.462-46.752c0.041-0.204,0.241-0.337,0.441-0.294c0.203,0.041,0.335,0.238,0.294,0.441
							c-3.718,18.613-14.561,35.819-29.748,47.206C140.054,252.499,139.975,252.524,139.897,252.524z"/>
					</g>
					<g>
						<path style="fill:#BF8419;" d="M153.813,262.151c-0.111,0-0.221-0.049-0.295-0.143c-0.128-0.163-0.1-0.398,0.063-0.527
							c7.157-5.637,12.755-13.075,16.189-21.512c0.078-0.192,0.297-0.285,0.489-0.206c0.191,0.078,0.284,0.297,0.206,0.489
							c-3.483,8.556-9.161,16.101-16.42,21.818C153.975,262.124,153.894,262.151,153.813,262.151z"/>
					</g>
				</g>
			</g>
			<g>
				<g>
					<g>
						<path style="fill:#9C4825;" d="M96.863,264.504l-10.801,0.809c-0.225,7.611,2.15,23.044,2.67,24.476
							c0.52,1.433,1.887,0.948,1.826-0.348c-0.061-1.296-0.39-8.454-0.39-8.454s2.133,9.325,2.533,10.6
							c0.4,1.275,1.933,1.729,1.916-0.277c-0.017-2.006-1.36-10.367-1.36-10.367s2.581,10.562,2.982,11.459
							c0.401,0.897,1.862,1.219,1.836-0.568c-0.026-1.786-1.644-11.591-1.644-11.591s2.798,8.821,3.184,9.769
							c0.386,0.948,1.79,1.086,1.62-0.965C101.065,286.996,97.914,267.802,96.863,264.504z"/>
					</g>
					<g>
						<path style="fill:#9C4825;" d="M96.863,264.504c2.007,1.387,6.75,6.016,7.474,7.51c0.725,1.493,2.002,7.874,0.784,8.236
							c-1.219,0.362-2.897-2.415-3.043-4.737c-1.999-0.203-4.894-1.117-6.559-3C93.853,270.63,96.863,264.504,96.863,264.504z"/>
					</g>
					<g>
						<path style="fill:#782E10;" d="M91.491,281.427c-1.19,0-2.328-0.146-3.343-0.447c-0.199-0.059-0.312-0.268-0.253-0.466
							c0.059-0.198,0.265-0.314,0.466-0.253c2.821,0.837,6.668,0.4,9.799-1.112c0.188-0.09,0.412-0.011,0.501,0.175
							c0.09,0.186,0.012,0.411-0.175,0.501C96.314,280.873,93.805,281.427,91.491,281.427z"/>
					</g>
					<g>
						<path style="fill:#782E10;" d="M98.929,275.241c-0.192,0-0.355-0.146-0.373-0.342c-0.247-2.761-0.671-5.535-1.26-8.245
							c-0.044-0.203,0.084-0.402,0.287-0.446c0.203-0.042,0.402,0.085,0.446,0.286c0.597,2.741,1.025,5.547,1.275,8.339
							c0.019,0.206-0.134,0.389-0.34,0.406C98.951,275.241,98.94,275.241,98.929,275.241z"/>
					</g>
				</g>
				<g>
					<g>
						<path style="fill:#EBB044;" d="M96.535,222.698c5.541-1.197,43.006-18.287,40.799-26.861
							c-2.207-8.574-13.471-11.784-19.23-10.818c-5.759,0.966-40.273,18.666-43.328,28.549c-3.055,9.883,8.099,47.988,9.582,51.17
							c1.146,2.459,13.124,1.252,13.772-0.538C99.428,260.613,99.383,229.944,96.535,222.698z"/>
					</g>
					<g>
						<g>
							<path style="fill:#BF8419;" d="M119.77,212.449c-0.131,0-0.259-0.069-0.328-0.191c-0.101-0.181-0.037-0.409,0.144-0.511
								c5.527-3.1,9.847-5.976,12.838-8.547c0.156-0.135,0.394-0.118,0.529,0.04c0.135,0.157,0.117,0.394-0.04,0.529
								c-3.03,2.605-7.39,5.509-12.96,8.633C119.895,212.433,119.832,212.449,119.77,212.449z"/>
						</g>
						<g>
							<path style="fill:#BF8419;" d="M96.606,223.109c-0.053,0-0.106-0.011-0.157-0.035c-1.564-0.72-3.184-1.206-4.815-1.443
								c-0.205-0.03-0.347-0.22-0.317-0.425c0.03-0.205,0.222-0.342,0.425-0.317c1.343,0.195,2.679,0.552,3.983,1.063
								c-1.076-1.634-2.682-2.901-4.534-3.551c-0.196-0.069-0.298-0.283-0.23-0.478c0.069-0.195,0.281-0.299,0.478-0.23
								c2.38,0.835,4.385,2.613,5.502,4.876c0.07,0.143,0.043,0.314-0.068,0.428C96.802,223.07,96.705,223.109,96.606,223.109z"/>
						</g>
						<g>
							<path style="fill:#BF8419;" d="M88.804,262.383c-1.313,0-2.625-0.089-3.921-0.27c-0.205-0.028-0.348-0.218-0.32-0.423
								c0.029-0.205,0.219-0.353,0.423-0.319c3.984,0.552,8.125,0.227,11.973-0.942c0.197-0.065,0.408,0.052,0.468,0.249
								c0.06,0.198-0.052,0.408-0.25,0.468C94.477,261.967,91.637,262.383,88.804,262.383z"/>
						</g>
					</g>
				</g>
			</g>
		</g>
		<g>
			<g>
				<g>
					<g>
						<path style="fill:#9C4825;" d="M159.017,171.141c-2.539,0.016-4.996-0.599-7.165-1.765c-2.163-1.155-4.037-2.806-5.443-4.882
							l-2.266-3.345v-20.077c0-4.19,3.443-7.562,7.628-7.47l6.876,0.158c4.064,0.087,5.781,3.699,7.301,7.464
							c1.842,4.544,0.36,7.421,0.512,12.302c0.016,0.561,0.054,1.144,0.12,1.749c0.027,0.24,0.06,0.485,0.093,0.736
							c0.016,0.12,0.038,0.245,0.055,0.37c0.033,0.223,0.076,0.452,0.12,0.686c0.038,0.218,0.076,0.425,0.104,0.632
							c0.016,0.087,0.033,0.169,0.044,0.256c0.071,0.496,0.131,0.97,0.169,1.433c0.044,0.441,0.065,0.877,0.076,1.291
							C167.467,168.717,162.395,171.125,159.017,171.141z"/>
					</g>
					<g>
						<g>
							<path style="fill:#9C4825;" d="M158.606,179.365c0,0-2.392,4.359-8.774,4.359c-6.102,0-9.161-4.359-9.161-4.359l3.468-18.218
								l13.102,8.359l0.255,1.562l0.482,3.262L158.606,179.365z"/>
						</g>
						<g>
							<path style="fill:#2C2F37;" d="M157.978,174.33c-2.476-0.521-4.803-1.672-6.759-3.313c-1.924-1.609-3.454-3.691-4.416-5.993
								c1.341,1.83,3.076,3.297,5.047,4.353c1.735,0.931,3.643,1.514,5.646,1.688L157.978,174.33z"/>
						</g>
					</g>
					<g>
						<g>
							<path style="fill:#9C4825;" d="M147.265,157.07c0,2.761-2.238,4.999-4.999,4.999c-2.762,0-5-2.238-5-4.999
								c0-2.761,2.238-4.999,5-4.999C145.027,152.07,147.265,154.309,147.265,157.07z"/>
						</g>
						<g>
							<g>
								<path style="fill:#782E10;" d="M145.127,160.118c-0.196,0-0.361-0.153-0.374-0.351c-0.08-1.258-0.718-2.476-1.707-3.258
									c-0.989-0.781-2.321-1.122-3.563-0.908c-0.204,0.032-0.398-0.102-0.433-0.306c-0.035-0.204,0.102-0.398,0.306-0.433
									c1.45-0.248,3.002,0.147,4.155,1.059c1.153,0.912,1.897,2.332,1.99,3.798c0.013,0.207-0.143,0.385-0.35,0.398
									C145.143,160.118,145.135,160.118,145.127,160.118z"/>
							</g>
							<g>
								<path style="fill:#782E10;" d="M140.104,159.41c-0.036,0-0.072-0.005-0.108-0.016c-0.198-0.06-0.311-0.269-0.251-0.467
									c0.481-1.605,1.845-2.814,3.474-3.082c0.209-0.032,0.398,0.105,0.431,0.31c0.034,0.204-0.105,0.397-0.31,0.431
									c-1.348,0.221-2.477,1.225-2.876,2.557C140.414,159.305,140.265,159.41,140.104,159.41z"/>
							</g>
						</g>
					</g>
					<g>
						<g>
							<path style="fill:#2C2F37;" d="M158.154,157.551c-0.143,0-0.28-0.083-0.342-0.222c-0.084-0.189,0-0.411,0.189-0.496
								c0.387-0.173,0.787-0.353,1.059-0.64c0.204-0.215,0.365-0.578,0.238-0.866c-0.067-0.152-0.216-0.29-0.374-0.435
								c-0.061-0.057-0.123-0.115-0.183-0.174c-0.529-0.529-0.893-1.284-1.054-2.183c-0.138-0.773-0.118-1.551-0.099-2.304
								c0.005-0.207,0.14-0.362,0.385-0.365c0.207,0.005,0.371,0.178,0.365,0.385c-0.019,0.715-0.037,1.454,0.087,2.152
								c0.093,0.521,0.316,1.253,0.847,1.785l0.161,0.152c0.197,0.182,0.421,0.389,0.551,0.683c0.267,0.605,0.001,1.282-0.38,1.685
								c-0.373,0.395-0.864,0.614-1.296,0.809C158.258,157.54,158.206,157.551,158.154,157.551z"/>
						</g>
						<g>
							<g>
								<g>
									<path style="fill:#2C2F37;" d="M160.271,146.572c-0.028,0.277,0.033,0.563,0.17,0.805c0.137,0.242,0.346,0.433,0.598,0.552
										c0.538-0.357,1.1-0.725,1.741-0.809c0.586-0.078,1.185,0.094,1.702,0.38c0.518,0.286,1,0.676,1.433,1.078
										c0.165-0.011,0.309-0.161,0.314-0.326c-0.497-1.009-1.485-1.871-2.61-2.196
										C162.493,145.732,161.265,145.954,160.271,146.572z"/>
								</g>
								<g>
									<path style="fill:#2C2F37;" d="M160.798,152.435c-0.047,0-0.095-0.009-0.141-0.027c-0.192-0.078-0.284-0.297-0.207-0.489
										c0.421-1.035,1.313-1.605,2.512-1.605c1.136,0,2.116,0.587,2.622,1.57c0.095,0.185,0.022,0.411-0.162,0.505
										c-0.185,0.096-0.411,0.022-0.505-0.162c-0.375-0.729-1.106-1.164-1.955-1.164c-0.886,0-1.514,0.393-1.816,1.137
										C161.086,152.347,160.945,152.435,160.798,152.435z"/>
								</g>
								<g>
									<path style="fill:#2C2F37;" d="M162.062,151.999c0,0.723,0.428,1.309,0.957,1.309c0.529,0,0.957-0.586,0.957-1.309
										c0-0.723-0.428-1.309-0.957-1.309C162.49,150.689,162.062,151.276,162.062,151.999z"/>
								</g>
							</g>
							<g>
								<g>
									<path style="fill:#2C2F37;" d="M155.789,146.572c0.028,0.277-0.032,0.563-0.17,0.805c-0.137,0.242-0.346,0.433-0.598,0.552
										c-0.538-0.357-1.1-0.725-1.741-0.809c-0.586-0.078-1.185,0.094-1.702,0.38c-0.518,0.286-1,0.676-1.433,1.078
										c-0.165-0.011-0.309-0.161-0.313-0.326c0.497-1.009,1.485-1.871,2.609-2.196
										C153.567,145.732,154.795,145.954,155.789,146.572z"/>
								</g>
								<g>
									<path style="fill:#2C2F37;" d="M155.262,152.435c-0.148,0-0.288-0.088-0.348-0.234c-0.302-0.744-0.93-1.137-1.816-1.137
										c-0.849,0-1.58,0.435-1.955,1.164c-0.095,0.184-0.32,0.257-0.505,0.162c-0.184-0.095-0.256-0.321-0.162-0.505
										c0.506-0.983,1.486-1.57,2.622-1.57c1.199,0,2.091,0.57,2.512,1.605c0.078,0.192-0.015,0.411-0.206,0.489
										C155.357,152.427,155.31,152.435,155.262,152.435z"/>
								</g>
								<g>
									<path style="fill:#2C2F37;" d="M152.084,151.999c0,0.723,0.428,1.309,0.957,1.309c0.529,0,0.957-0.586,0.957-1.309
										c0-0.723-0.428-1.309-0.957-1.309C152.513,150.689,152.084,151.276,152.084,151.999z"/>
								</g>
							</g>
						</g>
						<g>
							<g>
								<g>
									<path style="fill:#782110;" d="M154.034,157.07c0,0.472-1.152,0.854-2.572,0.854c-1.421,0-2.572-0.383-2.572-0.854
										c0-0.472,1.152-0.854,2.572-0.854C152.882,156.215,154.034,156.598,154.034,157.07z"/>
								</g>
							</g>
							<g>
								<g>
									<path style="fill:#782110;" d="M166.949,157.7c-0.458,0.142-1.063,0.223-1.727,0.223c-1.422,0-2.572-0.381-2.572-0.855
										c0-0.469,1.15-0.85,2.572-0.85c0.561,0,1.079,0.06,1.504,0.163c0.033,0.223,0.076,0.452,0.12,0.686
										C166.884,157.286,166.922,157.493,166.949,157.7z"/>
								</g>
							</g>
						</g>
						<g>
							<path style="fill:#782E10;" d="M157.937,165.509c-0.143,0-0.28-0.082-0.342-0.221c-0.084-0.189,0-0.411,0.188-0.496
								c1.052-0.473,2.313-0.48,3.372-0.017c0.189,0.083,0.276,0.304,0.193,0.494c-0.083,0.189-0.305,0.275-0.494,0.193
								c-0.867-0.38-1.901-0.375-2.764,0.014C158.041,165.498,157.989,165.509,157.937,165.509z"/>
						</g>
					</g>
					<g>
						<path style="fill:#FFFFFF;" d="M154.546,160.948c2.976-0.601,6.063-0.645,9.054-0.131c-1.221,1.153-2.818,1.939-4.498,1.945
							C157.423,162.768,155.775,162.092,154.546,160.948z"/>
					</g>
				</g>
				<g>
					<path style="fill:#2C2F37;" d="M177.82,137.085c-0.36,2.32-1.58,4.49-3.37,6c-1.8,1.5-4.14,2.34-6.49,2.29
						c-3.83-0.07-7.44-2.37-11.26-2.08c-1.39,0.1-2.72,0.54-4.1,0.72c-1.38,0.18-2.87,0.24-3.93-0.66
						c-1.22,0.84-1.36,2.61-1.04,4.06c0.32,1.45,0.97,2.86,0.88,4.34c-0.08,1.24-0.74,2.42-1.71,3.19c-0.8-1.7-2.53-2.87-4.53-2.87
						c-0.88,0-1.69,0.22-2.41,0.61c-1.65-2.76-3.16-5.66-3.4-8.84c-0.1-1.36,0.07-2.81,0.93-3.86c0.99-1.21,2.88-1.85,4.27-1.13
						c-1.44-2.11-1-5.28,0.95-6.92c1.7-1.42,4.11-1.62,6.31-1.34c1.88,0.25,3.71,0.79,5.59,1.02c1.88,0.23,3.89,0.1,5.5-0.9
						c1.31-0.81,2.22-2.12,3.37-3.15c1.26-1.13,2.82-1.93,4.48-2.29c0.79-0.17,1.69-0.22,2.33,0.28c0.69,0.54,0.82,1.57,0.52,2.4
						c-0.3,0.82-0.95,1.46-1.63,2.02c-0.67,0.55-1.29,1.12-1.83,1.8c1.44-1.25,3.27-2.07,5.16-2.3c0.74-0.09,1.61-0.04,2.06,0.56
						c0.4,0.54,0.28,1.3,0.06,1.94c-0.57,1.7-1.66,3.43-3.11,4.48c1.44-0.82,3.11-1.26,4.77-1.25c0.52,0,1.09,0.07,1.42,0.48
						C177.92,136.065,177.9,136.605,177.82,137.085z"/>
				</g>
			</g>
		</g>
	</g>
</g>
</svg>
